<svg xmlns="http://www.w3.org/2000/svg" viewBox="0 0 1536 1024">
  <title>mappaPtrt-01-01</title>
  <g id="Livello_6" data-name="Livello 6">
    <g id="banchina">
      <polygon points="947.54 467.78 947.54 471.14 953.52 467.78 947.54 467.78" fill="none"/>
      <path d="M1337.29,253.57c.25-.26-.29-18.44-.29-18.44v16.93h-17.33V370.87l15.91-3.38S1337.05,253.83,1337.29,253.57Z" fill="none"/>
      <path d="M1078.07,466.86l-.34.13h.34Z" fill="none"/>
      <path d="M889.56,471.68v-3.9h-5.5v3h0a11.93,11.93,0,0,1,3.8,8.71h0a11.94,11.94,0,0,1-4,8.86h.56V492H876v0l12.22,0Z" fill="none"/>
      <path d="M751.67,528.67v16a11.76,11.76,0,0,1-1.08,4.92,10.63,10.63,0,0,1,4.19,1.24V528.67Z" fill="none"/>
      <path d="M451.1,606.33v-.59H437.71a12,12,0,0,1-8.89-4l.18,4.57Z" fill="none"/>
      <polygon points="1319.41 107.2 1319.41 107.2 1319.41 107.19 1319.41 107.2" fill="none"/>
      <path d="M681.88,576.5h-3.61a12,12,0,0,1-4,7.77v9.67h-5.62V594h14Z" fill="none"/>
      <path d="M602.94,603.14h-.69a12,12,0,0,1-7.09,3.14V608h1.94Z" fill="none"/>
      <path d="M1391.93,105.73l-2-1.47s-1.86.33-1.79,0-16.89,2.92-17.12,2.92l-17.36-.44c-26-.43-49.9-16.84-49.9-16.84L1283,77.48,1261.88,89.2l-.15,8.47H1149.14V65.4a12,12,0,0,0-12-12H979.06A12,12,0,0,0,967.91,61H922.84a12,12,0,0,0-12,12v.23H863.49a12,12,0,0,0-12,12v2.33H824.37a12,12,0,0,0-11.83,10.09h-53a12,12,0,0,0-12,12v1.06h-17a12,12,0,0,0-12,12V129H673a12,12,0,0,0-12,12v7.45h-36.6a12,12,0,0,0-12,12v8.45h-8.15a12,12,0,0,0-10.76,6.72,11.94,11.94,0,0,0-8.42-3.48h-2.24a12,12,0,0,0-12,12v4.16H543a12,12,0,0,0-12,12v6.08H516.9a12,12,0,0,0-12,12v.17h-6.41a12,12,0,0,0-11.11,7.49,11.78,11.78,0,0,0-5.38-1.31h0a11.9,11.9,0,0,0-11.87,11.87v6.84h-16.5a12,12,0,0,0-12,12v5.38h-5.18a12,12,0,0,0-12,12h-15a8.84,8.84,0,0,0-8.81,8.82,8.69,8.69,0,0,0,1.45,4.82h-2.36a12,12,0,0,0-11.28,8H384.3a12,12,0,0,0-11.7,9.37h-2.8a12,12,0,0,0-9.38,4.55h-.94a12,12,0,0,0-12,12v.24a13,13,0,0,0-1.4-.09,11.76,11.76,0,0,0-11.63,10.36A12.18,12.18,0,0,0,330,335H322.4a12,12,0,0,0-12,11.64,9.52,9.52,0,0,0-7.71,9.32v1.86H291a12,12,0,0,0-12,12v8.09c-46.6,17.5-80.32,68.39-80.32,128.44,0,74.53,51.93,134.95,116,134.95,47.49,0,88.3-33.21,106.24-80.76a12,12,0,0,0,4.84,1.78v2.37l1.6-2.25,1.51,39.32c.43,3.2.64,2.69,4.25,4.58h20A21.67,21.67,0,0,0,458,619c1.1,1.32,6.66,8,15.31,7.33,7.7-.56,12.07-6.44,12.71-7.33a18.31,18.31,0,0,0,3.35-11h48.07s15.87,29.46,35.89,0h21.84v-1.73a12,12,0,0,0,7.09-3.14h51.9s5.79-2.27,11.1-9.14h3.4v-.06h5.62v-9.67a12,12,0,0,0,4-7.77h3.61l-.23-5.49L721,571s8.07-.72,11.26-13.94v-1.47l22.52-.16v-4.55a10.63,10.63,0,0,0-4.19-1.24,11.76,11.76,0,0,0,1.08-4.92v-16h3.11v-5.12h38s6.12-5.55,7.3-10.53l17,.24.49-9.38h37.3s8.16-6.45,10.94-11.88L876,492v0h8.44v-3.68h-.56a11.94,11.94,0,0,0,4-8.86h0a11.93,11.93,0,0,0-3.8-8.71h0v-3h5.5v3.9h57l.95-.54v-3.36h6l124.21-.79.34-.13-.49-20.86,154-.24,79.3-20.63,8.76-29V252.06H1337V235.13h55.27V107.2Zm-72.52,1.47h0Z" fill="#cedcf0"/>
      <path d="M1337,235.13s.54,18.18.29,18.44-1.71,113.92-1.71,113.92l-9.75,4.79-.16,44.31-1.34,25.58-92.73,3.59-154,.24.49,20.86V467h-.34l-124.21.79-6,3.36-.95.54h-57L888.23,492,876,492l-11.17-.09a22.12,22.12,0,0,1-3.68,6.24,22.51,22.51,0,0,1-7.27,5.71H817.63l-.49,9.38-17-.24c-1.18,5-7.3,10.53-7.3,10.53h-38v31.83l-22.52.16V557A22.83,22.83,0,0,1,721,571l-39.35.06.23,5.49.75,17.5h-14l-4.68.08a18.41,18.41,0,0,1-9.82,9.06H602.94L597.1,608H573.32a18.63,18.63,0,0,1-5.66,8.71,18.2,18.2,0,0,1-12.59,4.38c-5.72-.34-9.46-3.53-11.59-5.35a24.79,24.79,0,0,1-6.05-7.74H489.36a20.92,20.92,0,0,1-7.43,12.7,16.92,16.92,0,0,1-10.3,4c-7.66.07-12.57-5.9-13.82-7.42a22,22,0,0,1-4.7-10.95H429l-.18-4.57-1.51-39.32-1.6,2.25-10.4,14.61-15.42,27-22.53,19.19-37.89,17.3-47,1.21-49-23.11-40.84-45.55L190,509.72,143.36,512V731s1017,4.27,1131.88,3.56,117-109.65,117-109.65V235.13H1337Z" fill="#ced1c7"/>
    </g>
    <g id="Livello_7" data-name="Livello 7">
      <path d="M182.28,510.1H164.09a153.48,153.48,0,0,1,5-35.42c9.35-35.44,29.38-59.34,41.73-71.77,14.63-15.06,30.94-30.71,49-46.55,16-14,31.64-26.63,46.67-38A1444,1444,0,0,1,632.94,121.79C733,77.67,820.39,55.19,883.82,43c67-12.88,117.39-16.25,162.78-19.21a874.42,874.42,0,0,1,117.94,1.52c13.37,1.11,28.3,2.71,46.74,7.77a233.07,233.07,0,0,1,61,26.66S1325.6,94.23,1334.08,94c0,0,29,11,56.29-2.57a12.5,12.5,0,0,1,9.37.62,7.61,7.61,0,0,1,3.8,10.38c-1.18,2.66-3.46,3.88-5.2,4.79a18.38,18.38,0,0,1-8.06,2c-5.87.15-16.47,0-30.09-.63a120.19,120.19,0,0,1-25.46-4.63c-8-2.38-15.17-5.43-31-14-28.14-15.23-40.72-24.65-42.46-22.64-.71.84.29,3.77,8.79,13.59l-56.55-26-74.28-5.66L956,59.53,803.2,91.86l-82.87,29.5L583,176.48l-150.63,85-50.91,31.6-85.32,67.41-66.36,61.45-28.49,45Z" stroke="#000" stroke-miterlimit="10"/>
    </g>
  </g>
  <g id="Pontili">
    <rect id="alfa-bravo" x="1226.06" y="238" width="8.22" height="208" fill="gray"/>
    <rect id="charlie-delta" x="1144.67" y="229.67" width="8.22" height="216.33" fill="gray"/>
    <rect id="eco-foxtrot" x="1070" y="228.44" width="8.22" height="239.33" fill="gray"/>
    <rect id="golf-hotel" x="1007.56" y="221.78" width="8.22" height="246" fill="gray"/>
    <rect id="india-juliet" x="945.78" y="211.33" width="8.22" height="260.44" fill="gray"/>
    <rect id="kilo-lima" x="882.39" y="213" width="8.22" height="279" fill="gray"/>
    <rect id="mike-november" x="814.56" y="224.67" width="8.22" height="289" fill="gray"/>
    <rect id="oscar-papa" x="747.56" y="245.67" width="8.22" height="311" fill="gray"/>
    <rect id="quebec-romeo" x="674.22" y="268" width="8.22" height="326" fill="gray"/>
    <rect id="sierra-tango" x="594.72" y="292.67" width="8.22" height="315.67" fill="gray"/>
    <rect id="uniform-victor" x="515.39" y="335" width="8.22" height="273.33" fill="gray"/>
    <g id="torre">
      <polygon points="1282.5 78.53 1141 101.78 1282.5 101.78 1282.5 78.53" fill="gray"/>
      <path d="M1141,43s38.31,1.68,69.65,6.52,60.33,21.36,71.47,28.76c9.69,6.44-141.12,23.5-141.12,23.5-.86.15,0-40.95,0-40.95Z" fill="gray"/>
    </g>
    <path id="frangiflutti" d="M1141,60.83V43s-28.5-3-117.67.83c-24.2,1-68.83,3.34-180.33,28.5,0,0-59.5,13.34-115.5,32.5l-53.83,20.34s-13.84,5.5-67.34,28.16l-46,22.5s-47.16,25.5-54.5,30S461.67,231,462.17,231s-63.67,41.83-63.67,41.83l-77.83,54.95,8,10.89,62.16-44.17s106.5-72,169-100.83,92.5-41.84,126.34-53.84c0,0,38.83-17.83,102.33-36S916.5,72.17,958,69.67C958,69.67,1017.67,60,1141,60.83Z" fill="gray"/>
    <rect id="bunker" x="1319.67" y="251.67" width="17.33" height="141.17" fill="gray"/>
    <path d="M424.89,379.67V527.56a159.14,159.14,0,0,1-20.63,57.24,84,84,0,0,1-11,15.29A90.47,90.47,0,0,1,376,614.67a108,108,0,0,1-17.82,9.84l-.76.32c-22.91,9.57-50.35,7.09-50.35,7.09a113.08,113.08,0,0,1-32.74-8,111.45,111.45,0,0,1-36.24-24.33,115.07,115.07,0,0,1-20.38-28.18c-13.12-25.45-13.7-50-12.93-63.31A172.15,172.15,0,0,1,209.11,475a127.18,127.18,0,0,1,6.36-20.74,116.2,116.2,0,0,1,13.64-24.47s20.89-30.71,99.56-91.15l-8-10.89s-42,32-48.89,37.78-50.1,46.22-59,58.89a176.74,176.74,0,0,0-13,20.22c-4.64,8.75-16.29,31.21-17.46,62.33-1.25,33.44,10.3,58,15.16,68,6.43,13.27,19,38.37,47.46,56.62,34,21.8,69,19.93,81.28,18.69a111.76,111.76,0,0,0,61.1-24.67,108.86,108.86,0,0,0,18.43-19.31h27.31V379.67Z" fill="gray"/>
    <polygon id="cantiere" points="1298.75 392.84 1298.75 424.2 1271.12 424.2 1271.12 392.84 1234.28 392.84 1234.28 446 1271.12 446 1337 446 1337 424.2 1337 392.84 1298.75 392.84" fill="gray"/>
  </g>
  <g id="Posti_barca">
    <g id="bravo">
      <rect x="1206.17" y="268.48" width="17.56" height="4.1" fill="#b0dfc9" stroke="#9d9d9c" stroke-width="0.25"/>
      <rect x="1206.17" y="274.13" width="17.56" height="4.1" fill="#b0dfc9" stroke="#9d9d9c" stroke-width="0.25"/>
      <rect x="1206.17" y="279.78" width="17.56" height="4.1" fill="#b0dfc9" stroke="#9d9d9c" stroke-width="0.25"/>
      <rect x="1206.17" y="285.43" width="17.56" height="4.1" fill="#b0dfc9" stroke="#9d9d9c" stroke-width="0.25"/>
      <rect x="1206.17" y="240.21" width="17.56" height="4.1" fill="#b0dfc9" stroke="#9d9d9c" stroke-width="0.25"/>
      <rect x="1206.17" y="245.86" width="17.56" height="4.1" fill="#b0dfc9" stroke="#9d9d9c" stroke-width="0.25"/>
      <rect x="1206.17" y="251.52" width="17.56" height="4.1" fill="#b0dfc9" stroke="#9d9d9c" stroke-width="0.25"/>
      <rect x="1206.17" y="257.17" width="17.56" height="4.1" fill="#b0dfc9" stroke="#9d9d9c" stroke-width="0.25"/>
      <rect x="1206.17" y="262.82" width="17.56" height="4.1" fill="#b0dfc9" stroke="#9d9d9c" stroke-width="0.25"/>
      <g id="bravo-2" data-name="bravo">
        <rect x="1206.17" y="341.96" width="17.56" height="4.1" fill="#b0dfc9" stroke="#9d9d9c" stroke-width="0.25"/>
        <rect x="1206.17" y="347.62" width="17.56" height="4.1" fill="#b0dfc9" stroke="#9d9d9c" stroke-width="0.25"/>
        <rect x="1206.17" y="353.27" width="17.56" height="4.1" fill="#b0dfc9" stroke="#9d9d9c" stroke-width="0.25"/>
        <rect x="1206.17" y="358.92" width="17.56" height="4.1" fill="#b0dfc9" stroke="#9d9d9c" stroke-width="0.25"/>
        <rect x="1206.17" y="364.57" width="17.56" height="4.1" fill="#b0dfc9" stroke="#9d9d9c" stroke-width="0.25"/>
        <rect x="1206.17" y="370.23" width="17.56" height="4.1" fill="#b0dfc9" stroke="#9d9d9c" stroke-width="0.25"/>
        <rect x="1206.17" y="375.88" width="17.56" height="4.1" fill="#b0dfc9" stroke="#9d9d9c" stroke-width="0.25"/>
        <rect x="1206.17" y="381.53" width="17.56" height="4.1" fill="#b0dfc9" stroke="#9d9d9c" stroke-width="0.25"/>
        <rect x="1206.17" y="313.7" width="17.56" height="4.1" fill="#b0dfc9" stroke="#9d9d9c" stroke-width="0.25"/>
        <rect x="1206.17" y="319.35" width="17.56" height="4.1" fill="#b0dfc9" stroke="#9d9d9c" stroke-width="0.25"/>
        <rect x="1206.17" y="325" width="17.56" height="4.1" fill="#b0dfc9" stroke="#9d9d9c" stroke-width="0.25"/>
        <rect x="1206.17" y="330.66" width="17.56" height="4.1" fill="#b0dfc9" stroke="#9d9d9c" stroke-width="0.25"/>
        <rect x="1206.17" y="336.31" width="17.56" height="4.1" fill="#b0dfc9" stroke="#9d9d9c" stroke-width="0.25"/>
        <rect x="1206.17" y="291.09" width="17.56" height="4.1" fill="#b0dfc9" stroke="#9d9d9c" stroke-width="0.25"/>
        <rect x="1206.17" y="296.74" width="17.56" height="4.1" fill="#b0dfc9" stroke="#9d9d9c" stroke-width="0.25"/>
        <rect x="1206.17" y="302.39" width="17.56" height="4.1" fill="#b0dfc9" stroke="#9d9d9c" stroke-width="0.25"/>
        <rect x="1206.17" y="308.05" width="17.56" height="4.1" fill="#b0dfc9" stroke="#9d9d9c" stroke-width="0.25"/>
        <rect x="1206.17" y="398.49" width="17.56" height="4.1" fill="#b0dfc9" stroke="#9d9d9c" stroke-width="0.25"/>
        <rect x="1206.17" y="404.15" width="17.56" height="4.1" fill="#b0dfc9" stroke="#9d9d9c" stroke-width="0.25"/>
        <rect x="1206.17" y="409.8" width="17.56" height="4.1" fill="#b0dfc9" stroke="#9d9d9c" stroke-width="0.25"/>
        <rect x="1206.17" y="415.45" width="17.56" height="4.1" fill="#b0dfc9" stroke="#9d9d9c" stroke-width="0.25"/>
        <rect x="1206.17" y="421.1" width="17.56" height="4.1" fill="#b0dfc9" stroke="#9d9d9c" stroke-width="0.25"/>
        <rect x="1206.17" y="426.76" width="17.56" height="4.1" fill="#b0dfc9" stroke="#9d9d9c" stroke-width="0.25"/>
        <rect x="1206.17" y="432.41" width="17.56" height="4.1" fill="#b0dfc9" stroke="#9d9d9c" stroke-width="0.25"/>
        <rect x="1206.17" y="438.06" width="17.56" height="4.1" fill="#b0dfc9" stroke="#9d9d9c" stroke-width="0.25"/>
        <rect x="1206.17" y="387.19" width="17.56" height="4.1" fill="#b0dfc9" stroke="#9d9d9c" stroke-width="0.25"/>
        <rect x="1206.17" y="392.84" width="17.56" height="4.1" fill="#b0dfc9" stroke="#9d9d9c" stroke-width="0.25"/>
      </g>
    </g>
    <g id="alfa">
      <rect x="1236.97" y="345.38" width="17.56" height="4.24" fill="#b0dfc9" stroke="#9d9d9c" stroke-width="0.25"/>
      <rect x="1236.97" y="351.22" width="17.56" height="4.24" fill="#b0dfc9" stroke="#9d9d9c" stroke-width="0.25"/>
      <rect x="1236.97" y="357.06" width="17.56" height="4.24" fill="#b0dfc9" stroke="#9d9d9c" stroke-width="0.25"/>
      <rect x="1236.97" y="362.9" width="17.56" height="4.24" fill="#b0dfc9" stroke="#9d9d9c" stroke-width="0.25"/>
      <rect x="1236.97" y="368.75" width="17.56" height="4.24" fill="#b0dfc9" stroke="#9d9d9c" stroke-width="0.25"/>
      <rect x="1236.97" y="374.59" width="17.56" height="4.24" fill="#b0dfc9" stroke="#9d9d9c" stroke-width="0.25"/>
      <rect x="1236.97" y="380.43" width="17.56" height="4.24" fill="#b0dfc9" stroke="#9d9d9c" stroke-width="0.25"/>
      <rect x="1236.97" y="386.27" width="17.56" height="4.24" fill="#b0dfc9" stroke="#9d9d9c" stroke-width="0.25"/>
      <rect x="1236.97" y="316.16" width="17.56" height="4.24" fill="#b0dfc9" stroke="#9d9d9c" stroke-width="0.25"/>
      <rect x="1236.97" y="322.01" width="17.56" height="4.24" fill="#b0dfc9" stroke="#9d9d9c" stroke-width="0.25"/>
      <rect x="1236.97" y="327.85" width="17.56" height="4.24" fill="#b0dfc9" stroke="#9d9d9c" stroke-width="0.25"/>
      <rect x="1236.97" y="333.69" width="17.56" height="4.24" fill="#b0dfc9" stroke="#9d9d9c" stroke-width="0.25"/>
      <rect x="1236.97" y="339.53" width="17.56" height="4.24" fill="#b0dfc9" stroke="#9d9d9c" stroke-width="0.25"/>
      <rect x="1236.97" y="269.42" width="17.56" height="4.24" fill="#b0dfc9" stroke="#9d9d9c" stroke-width="0.25"/>
      <rect x="1236.97" y="275.27" width="17.56" height="4.24" fill="#b0dfc9" stroke="#9d9d9c" stroke-width="0.25"/>
      <rect x="1236.97" y="281.11" width="17.56" height="4.24" fill="#b0dfc9" stroke="#9d9d9c" stroke-width="0.25"/>
      <rect x="1236.97" y="286.95" width="17.56" height="4.24" fill="#b0dfc9" stroke="#9d9d9c" stroke-width="0.25"/>
      <rect x="1236.97" y="292.79" width="17.56" height="4.24" fill="#b0dfc9" stroke="#9d9d9c" stroke-width="0.25"/>
      <rect x="1236.97" y="298.64" width="17.56" height="4.24" fill="#b0dfc9" stroke="#9d9d9c" stroke-width="0.25"/>
      <rect x="1236.97" y="304.48" width="17.56" height="4.24" fill="#b0dfc9" stroke="#9d9d9c" stroke-width="0.25"/>
      <rect x="1236.97" y="310.32" width="17.56" height="4.24" fill="#b0dfc9" stroke="#9d9d9c" stroke-width="0.25"/>
      <rect x="1236.97" y="240.21" width="17.56" height="4.24" fill="#b0dfc9" stroke="#9d9d9c" stroke-width="0.25"/>
      <rect x="1236.97" y="246.05" width="17.56" height="4.24" fill="#b0dfc9" stroke="#9d9d9c" stroke-width="0.25"/>
      <rect x="1236.97" y="251.9" width="17.56" height="4.24" fill="#b0dfc9" stroke="#9d9d9c" stroke-width="0.25"/>
      <rect x="1236.97" y="257.74" width="17.56" height="4.24" fill="#b0dfc9" stroke="#9d9d9c" stroke-width="0.25"/>
      <rect x="1236.97" y="263.58" width="17.56" height="4.24" fill="#b0dfc9" stroke="#9d9d9c" stroke-width="0.25"/>
    </g>
    <g id="charlie">
      <rect x="1155.94" y="383.42" width="17.56" height="5.52" fill="#b0dfc9" stroke="#9d9d9c" stroke-width="0.25"/>
      <rect x="1155.94" y="391.02" width="17.56" height="5.52" fill="#b0dfc9" stroke="#9d9d9c" stroke-width="0.25"/>
      <rect x="1155.94" y="398.62" width="17.56" height="5.52" fill="#b0dfc9" stroke="#9d9d9c" stroke-width="0.25"/>
      <rect x="1155.94" y="406.23" width="17.56" height="5.52" fill="#b0dfc9" stroke="#9d9d9c" stroke-width="0.25"/>
      <rect x="1155.94" y="413.83" width="17.56" height="5.52" fill="#b0dfc9" stroke="#9d9d9c" stroke-width="0.25"/>
      <rect x="1155.94" y="421.44" width="17.56" height="5.52" fill="#b0dfc9" stroke="#9d9d9c" stroke-width="0.25"/>
      <rect x="1155.94" y="429.04" width="17.56" height="5.52" fill="#b0dfc9" stroke="#9d9d9c" stroke-width="0.25"/>
      <rect x="1155.94" y="436.65" width="17.56" height="5.52" fill="#b0dfc9" stroke="#9d9d9c" stroke-width="0.25"/>
      <rect x="1155.94" y="345.4" width="17.56" height="5.52" fill="#b0dfc9" stroke="#9d9d9c" stroke-width="0.25"/>
      <rect x="1155.94" y="353" width="17.56" height="5.52" fill="#b0dfc9" stroke="#9d9d9c" stroke-width="0.25"/>
      <rect x="1155.94" y="360.6" width="17.56" height="5.52" fill="#b0dfc9" stroke="#9d9d9c" stroke-width="0.25"/>
      <rect x="1155.94" y="368.21" width="17.56" height="5.52" fill="#b0dfc9" stroke="#9d9d9c" stroke-width="0.25"/>
      <rect x="1155.94" y="375.81" width="17.56" height="5.52" fill="#b0dfc9" stroke="#9d9d9c" stroke-width="0.25"/>
      <rect x="1155.94" y="284.56" width="17.56" height="5.52" fill="#b0dfc9" stroke="#9d9d9c" stroke-width="0.25"/>
      <rect x="1155.94" y="292.17" width="17.56" height="5.52" fill="#b0dfc9" stroke="#9d9d9c" stroke-width="0.25"/>
      <rect x="1155.94" y="299.77" width="17.56" height="5.52" fill="#b0dfc9" stroke="#9d9d9c" stroke-width="0.25"/>
      <rect x="1155.94" y="307.37" width="17.56" height="5.52" fill="#b0dfc9" stroke="#9d9d9c" stroke-width="0.25"/>
      <rect x="1155.94" y="314.98" width="17.56" height="5.52" fill="#b0dfc9" stroke="#9d9d9c" stroke-width="0.25"/>
      <rect x="1155.94" y="322.58" width="17.56" height="5.52" fill="#b0dfc9" stroke="#9d9d9c" stroke-width="0.25"/>
      <rect x="1155.94" y="330.19" width="17.56" height="5.52" fill="#b0dfc9" stroke="#9d9d9c" stroke-width="0.25"/>
      <rect x="1155.94" y="337.79" width="17.56" height="5.52" fill="#b0dfc9" stroke="#9d9d9c" stroke-width="0.25"/>
      <rect x="1155.94" y="246.54" width="17.56" height="5.52" fill="#b0dfc9" stroke="#9d9d9c" stroke-width="0.25"/>
      <rect x="1155.94" y="254.15" width="17.56" height="5.52" fill="#b0dfc9" stroke="#9d9d9c" stroke-width="0.25"/>
      <rect x="1155.94" y="261.75" width="17.56" height="5.52" fill="#b0dfc9" stroke="#9d9d9c" stroke-width="0.25"/>
      <rect x="1155.94" y="269.35" width="17.56" height="5.52" fill="#b0dfc9" stroke="#9d9d9c" stroke-width="0.25"/>
      <rect x="1155.94" y="276.96" width="17.56" height="5.52" fill="#b0dfc9" stroke="#9d9d9c" stroke-width="0.25"/>
      <rect x="1155.94" y="231.33" width="17.56" height="5.52" fill="#b0dfc9" stroke="#9d9d9c" stroke-width="0.25"/>
      <rect x="1155.94" y="238.94" width="17.56" height="5.52" fill="#b0dfc9" stroke="#9d9d9c" stroke-width="0.25"/>
    </g>
    <g id="delta">
      <rect id="D_30" data-name="D 30" x="1123.44" y="244.67" width="17.56" height="4.84" fill="#b0dfc9" stroke="#9d9d9c" stroke-width="0.25"/>
      <rect id="D_29" data-name="D 29" x="1123.44" y="251.34" width="17.56" height="4.84" fill="#b0dfc9" stroke="#9d9d9c" stroke-width="0.25"/>
      <rect id="D_28" data-name="D 28" x="1123.44" y="258.01" width="17.56" height="4.84" fill="#b0dfc9" stroke="#9d9d9c" stroke-width="0.25"/>
      <rect id="D_18" data-name="D 18" x="1123.44" y="324.71" width="17.56" height="4.84" fill="#b0dfc9" stroke="#9d9d9c" stroke-width="0.25"/>
      <rect id="D_17" data-name="D 17" x="1123.44" y="331.38" width="17.56" height="4.84" fill="#b0dfc9" stroke="#9d9d9c" stroke-width="0.25"/>
      <rect id="D_16" data-name="D 16" x="1123.44" y="338.05" width="17.56" height="4.84" fill="#b0dfc9" stroke="#9d9d9c" stroke-width="0.25"/>
      <rect id="D_15" data-name="D 15" x="1123.44" y="344.72" width="17.56" height="4.84" fill="#b0dfc9" stroke="#9d9d9c" stroke-width="0.25"/>
      <rect id="D_14" data-name="D 14" x="1123.44" y="351.39" width="17.56" height="4.84" fill="#b0dfc9" stroke="#9d9d9c" stroke-width="0.25"/>
      <rect id="D_13" data-name="D 13" x="1123.44" y="358.06" width="17.56" height="4.84" fill="#b0dfc9" stroke="#9d9d9c" stroke-width="0.25"/>
      <rect id="D_12" data-name="D 12" x="1123.44" y="364.73" width="17.56" height="4.84" fill="#b0dfc9" stroke="#9d9d9c" stroke-width="0.25"/>
      <rect id="D_11" data-name="D 11" x="1123.44" y="371.4" width="17.56" height="4.84" fill="#b0dfc9" stroke="#9d9d9c" stroke-width="0.25"/>
      <rect id="D_23" data-name="D 23" x="1123.44" y="291.36" width="17.56" height="4.84" fill="#b0dfc9" stroke="#9d9d9c" stroke-width="0.25"/>
      <rect id="D_22" data-name="D 22" x="1123.44" y="298.03" width="17.56" height="4.84" fill="#b0dfc9" stroke="#9d9d9c" stroke-width="0.25"/>
      <rect id="D_21" data-name="D 21" x="1123.44" y="304.7" width="17.56" height="4.84" fill="#b0dfc9" stroke="#9d9d9c" stroke-width="0.25"/>
      <rect id="D_20" data-name="D 20" x="1123.44" y="311.37" width="17.56" height="4.84" fill="#b0dfc9" stroke="#9d9d9c" stroke-width="0.25"/>
      <rect id="D_19" data-name="D 19" x="1123.44" y="318.04" width="17.56" height="4.84" fill="#b0dfc9" stroke="#9d9d9c" stroke-width="0.25"/>
      <rect id="D_27" data-name="D 27" x="1123.44" y="264.68" width="17.56" height="4.84" fill="#b0dfc9" stroke="#9d9d9c" stroke-width="0.25"/>
      <rect id="D_26" data-name="D 26" x="1123.44" y="271.35" width="17.56" height="4.84" fill="#b0dfc9" stroke="#9d9d9c" stroke-width="0.25"/>
      <rect id="D_25" data-name="D 25" x="1123.44" y="278.02" width="17.56" height="4.84" fill="#b0dfc9" stroke="#9d9d9c" stroke-width="0.25"/>
      <rect id="D_24" data-name="D 24" x="1123.44" y="284.69" width="17.56" height="4.84" fill="#b0dfc9" stroke="#9d9d9c" stroke-width="0.25"/>
      <rect id="D_8" data-name="D 8" x="1123.44" y="391.41" width="17.56" height="4.84" fill="#b0dfc9" stroke="#9d9d9c" stroke-width="0.25"/>
      <rect id="D_7" data-name="D 7" x="1123.44" y="398.08" width="17.56" height="4.84" fill="#b0dfc9" stroke="#9d9d9c" stroke-width="0.25"/>
      <rect id="D_6" data-name="D 6" x="1123.44" y="404.75" width="17.56" height="4.84" fill="#b0dfc9" stroke="#9d9d9c" stroke-width="0.25"/>
      <rect id="D_5" data-name="D 5" x="1123.44" y="411.42" width="17.56" height="4.84" fill="#b0dfc9" stroke="#9d9d9c" stroke-width="0.25"/>
      <rect id="D_4" data-name="D 4" x="1123.44" y="418.09" width="17.56" height="4.84" fill="#b0dfc9" stroke="#9d9d9c" stroke-width="0.25"/>
      <rect id="D_3" data-name="D 3" x="1123.44" y="424.76" width="17.56" height="4.84" fill="#b0dfc9" stroke="#9d9d9c" stroke-width="0.25"/>
      <rect id="D_2" data-name="D 2" x="1123.44" y="431.43" width="17.56" height="4.84" fill="#b0dfc9" stroke="#9d9d9c" stroke-width="0.25"/>
      <rect id="D_1" data-name="D 1" x="1123.44" y="438.1" width="17.56" height="4.84" fill="#b0dfc9" stroke="#9d9d9c" stroke-width="0.25"/>
      <rect id="D_10" data-name="D 10" x="1123.44" y="378.07" width="17.56" height="4.84" fill="#b0dfc9" stroke="#9d9d9c" stroke-width="0.25"/>
      <rect id="D_9" data-name="D 9" x="1123.44" y="384.74" width="17.56" height="4.84" fill="#b0dfc9" stroke="#9d9d9c" stroke-width="0.25"/>
      <rect id="D_31" data-name="D 31" x="1123.44" y="237.77" width="17.56" height="4.84" fill="#b0dfc9" stroke="#9d9d9c" stroke-width="0.25"/>
      <rect id="D_32" data-name="D 32" x="1123.44" y="231.1" width="17.56" height="4.84" fill="#b0dfc9" stroke="#9d9d9c" stroke-width="0.25"/>
    </g>
    <g id="frangiflutti-2" data-name="frangiflutti">
      <path id="FF113" d="M1132,64.29h5.05a0,0,0,0,1,0,0v15a2.53,2.53,0,0,1-2.53,2.53h0a2.53,2.53,0,0,1-2.53-2.53v-15A0,0,0,0,1,1132,64.29Z" fill="#a3beb1" stroke="#b1b1b0" stroke-miterlimit="10" stroke-width="0.25"/>
      <path id="FF112" d="M1124.35,64.29h5.05a0,0,0,0,1,0,0v15a2.53,2.53,0,0,1-2.53,2.53h0a2.53,2.53,0,0,1-2.53-2.53v-15A0,0,0,0,1,1124.35,64.29Z" fill="#a3beb1" stroke="#b1b1b0" stroke-miterlimit="10" stroke-width="0.25"/>
      <path id="FF111" d="M1116.7,64.29h5.05a0,0,0,0,1,0,0v15a2.53,2.53,0,0,1-2.53,2.53h0a2.53,2.53,0,0,1-2.53-2.53v-15a0,0,0,0,1,0,0Z" fill="#a3beb1" stroke="#b1b1b0" stroke-miterlimit="10" stroke-width="0.25"/>
      <path id="FF110" d="M1109,64.29h5.05a0,0,0,0,1,0,0v15a2.53,2.53,0,0,1-2.53,2.53h0a2.53,2.53,0,0,1-2.53-2.53v-15A0,0,0,0,1,1109,64.29Z" fill="#a3beb1" stroke="#b1b1b0" stroke-miterlimit="10" stroke-width="0.25"/>
      <path id="FF109" d="M1104.27,81.83h0a2.37,2.37,0,0,0,2.48-2.23l-.31-15.31-5,.07.31,15.32A2.38,2.38,0,0,0,1104.27,81.83Z" fill="#a3beb1" stroke="#b1b1b0" stroke-miterlimit="10" stroke-width="0.25"/>
      <path id="FF108" d="M1096.61,82h0a2.35,2.35,0,0,0,2.48-2.23l-.3-15.32-5.06.08L1094,79.8A2.4,2.4,0,0,0,1096.61,82Z" fill="#a3beb1" stroke="#b1b1b0" stroke-miterlimit="10" stroke-width="0.25"/>
      <path id="FF107" d="M1089,82.06h0a2.36,2.36,0,0,0,2.48-2.22l-.31-15.32-5.05.08.31,15.31A2.38,2.38,0,0,0,1089,82.06Z" fill="#a3beb1" stroke="#b1b1b0" stroke-miterlimit="10" stroke-width="0.25"/>
      <path id="FF106" d="M1081.3,82.18h0a2.35,2.35,0,0,0,2.48-2.22l-.3-15.32-5.06.07.31,15.32A2.4,2.4,0,0,0,1081.3,82.18Z" fill="#a3beb1" stroke="#b1b1b0" stroke-miterlimit="10" stroke-width="0.25"/>
      <path id="FF105" d="M1073.87,82.3h0a2.35,2.35,0,0,0,2.45-2.25l-.5-15.32-5,.13.5,15.31A2.4,2.4,0,0,0,1073.87,82.3Z" fill="#a3beb1" stroke="#b1b1b0" stroke-miterlimit="10" stroke-width="0.25"/>
      <path id="FF104" d="M1066.21,82.49h0a2.35,2.35,0,0,0,2.45-2.25l-.5-15.32-5.05.13.5,15.31A2.41,2.41,0,0,0,1066.21,82.49Z" fill="#a3beb1" stroke="#b1b1b0" stroke-miterlimit="10" stroke-width="0.25"/>
      <path id="FF103" d="M1058.56,82.68h0a2.36,2.36,0,0,0,2.45-2.25l-.5-15.32-5,.13.5,15.31A2.4,2.4,0,0,0,1058.56,82.68Z" fill="#a3beb1" stroke="#b1b1b0" stroke-miterlimit="10" stroke-width="0.25"/>
      <path id="FF102" d="M1050.9,82.87h0a2.36,2.36,0,0,0,2.45-2.25l-.5-15.32-5,.13.5,15.31A2.4,2.4,0,0,0,1050.9,82.87Z" fill="#a3beb1" stroke="#b1b1b0" stroke-miterlimit="10" stroke-width="0.25"/>
      <path id="FF101" d="M1044.27,83.13h0a2.32,2.32,0,0,0,2.32-2.36l-1.41-15.27-5,.35,1.4,15.27A2.45,2.45,0,0,0,1044.27,83.13Z" fill="#a3beb1" stroke="#b1b1b0" stroke-miterlimit="10" stroke-width="0.25"/>
      <path id="FF100" d="M1036.62,83.66h0a2.31,2.31,0,0,0,2.31-2.36L1037.53,66l-5,.35,1.41,15.27A2.45,2.45,0,0,0,1036.62,83.66Z" fill="#a3beb1" stroke="#b1b1b0" stroke-miterlimit="10" stroke-width="0.25"/>
      <path d="M1029,84.19h0a2.32,2.32,0,0,0,2.32-2.36l-1.41-15.27-5,.35,1.41,15.27A2.44,2.44,0,0,0,1029,84.19Z" fill="#a3beb1" stroke="#b1b1b0" stroke-miterlimit="10" stroke-width="0.25"/>
      <path d="M1021.31,84.72h0a2.3,2.3,0,0,0,2.31-2.35l-1.4-15.28-5,.35,1.41,15.27A2.43,2.43,0,0,0,1021.31,84.72Z" fill="#a3beb1" stroke="#b1b1b0" stroke-miterlimit="10" stroke-width="0.25"/>
      <path d="M1014,85.32h0a2.3,2.3,0,0,0,2.27-2.39l-1.72-15.25-5,.42,1.72,15.25A2.46,2.46,0,0,0,1014,85.32Z" fill="#a3beb1" stroke="#b1b1b0" stroke-miterlimit="10" stroke-width="0.25"/>
      <path d="M1006.34,86h0a2.29,2.29,0,0,0,2.27-2.39l-1.71-15.24-5,.42L1003.58,84A2.45,2.45,0,0,0,1006.34,86Z" fill="#a3beb1" stroke="#b1b1b0" stroke-miterlimit="10" stroke-width="0.25"/>
      <path d="M998.69,86.61h0a2.29,2.29,0,0,0,2.27-2.39L999.24,69l-5,.43,1.72,15.25A2.45,2.45,0,0,0,998.69,86.61Z" fill="#a3beb1" stroke="#b1b1b0" stroke-miterlimit="10" stroke-width="0.25"/>
      <path d="M991,87.26h0a2.3,2.3,0,0,0,2.27-2.39l-1.71-15.25-5,.43,1.71,15.24A2.45,2.45,0,0,0,991,87.26Z" fill="#a3beb1" stroke="#b1b1b0" stroke-miterlimit="10" stroke-width="0.25"/>
      <path d="M983.59,87.9h0a2.29,2.29,0,0,0,2.24-2.41l-1.9-15.23-5,.47L980.81,86A2.47,2.47,0,0,0,983.59,87.9Z" fill="#a3beb1" stroke="#b1b1b0" stroke-miterlimit="10" stroke-width="0.25"/>
      <path d="M975.94,88.62h0a2.29,2.29,0,0,0,2.24-2.41L976.27,71l-5,.47,1.9,15.23A2.47,2.47,0,0,0,975.94,88.62Z" fill="#a3beb1" stroke="#b1b1b0" stroke-miterlimit="10" stroke-width="0.25"/>
      <path d="M968.28,89.34h0a2.29,2.29,0,0,0,2.24-2.41l-1.9-15.23-5,.47L965.5,87.4A2.45,2.45,0,0,0,968.28,89.34Z" fill="#a3beb1" stroke="#b1b1b0" stroke-miterlimit="10" stroke-width="0.25"/>
      <path d="M961.45,90h0a2.26,2.26,0,0,0,2.12-2.49l-2.64-15.15-5,.65,2.64,15.15A2.49,2.49,0,0,0,961.45,90Z" fill="#a3beb1" stroke="#b1b1b0" stroke-miterlimit="10" stroke-width="0.25"/>
      <path d="M954.11,90.87h0a2.24,2.24,0,0,0,2.08-2.52l-2.92-15.1-5,.72,2.92,15.11A2.51,2.51,0,0,0,954.11,90.87Z" fill="#a3beb1" stroke="#b1b1b0" stroke-miterlimit="10" stroke-width="0.25"/>
      <path d="M946.45,91.89h0a2.25,2.25,0,0,0,2.08-2.52l-2.92-15.11-5,.72,2.92,15.11A2.51,2.51,0,0,0,946.45,91.89Z" fill="#a3beb1" stroke="#b1b1b0" stroke-miterlimit="10" stroke-width="0.25"/>
      <path d="M938.83,92.8h0a2.23,2.23,0,0,0,2.07-2.52L938,75.17l-5,.73L935.92,91A2.51,2.51,0,0,0,938.83,92.8Z" fill="#a3beb1" stroke="#b1b1b0" stroke-miterlimit="10" stroke-width="0.25"/>
      <path d="M931.31,93.92h0a2.23,2.23,0,0,0,2.05-2.54L930.29,76.3l-5,.76,3.07,15.08A2.52,2.52,0,0,0,931.31,93.92Z" fill="#a3beb1" stroke="#b1b1b0" stroke-miterlimit="10" stroke-width="0.25"/>
      <path d="M923.73,95h0a2.25,2.25,0,0,0,2-2.55l-3.14-15.07-5,.77,3.14,15.08A2.52,2.52,0,0,0,923.73,95Z" fill="#a3beb1" stroke="#b1b1b0" stroke-miterlimit="10" stroke-width="0.25"/>
      <path d="M916.47,96.36h0a2.22,2.22,0,0,0,2-2.58l-3.49-15-5,.87,3.49,15A2.55,2.55,0,0,0,916.47,96.36Z" fill="#a3beb1" stroke="#b1b1b0" stroke-miterlimit="10" stroke-width="0.25"/>
      <path d="M908.81,97.62h0a2.22,2.22,0,0,0,2-2.58L907.3,80l-4.95.86,3.49,15A2.53,2.53,0,0,0,908.81,97.62Z" fill="#a3beb1" stroke="#b1b1b0" stroke-miterlimit="10" stroke-width="0.25"/>
      <path d="M901.41,99h0a2.22,2.22,0,0,0,1.94-2.6l-3.72-15-4.94.92,3.72,15A2.55,2.55,0,0,0,901.41,99Z" fill="#a3beb1" stroke="#b1b1b0" stroke-miterlimit="10" stroke-width="0.25"/>
      <path d="M893.88,100.47h0a2.21,2.21,0,0,0,1.92-2.61L892,82.9l-4.93.95,3.83,15A2.55,2.55,0,0,0,893.88,100.47Z" fill="#a3beb1" stroke="#b1b1b0" stroke-miterlimit="10" stroke-width="0.25"/>
      <path d="M886.29,101.89h0a2.19,2.19,0,0,0,1.91-2.61l-3.89-15-4.93,1,3.89,14.94A2.55,2.55,0,0,0,886.29,101.89Z" fill="#a3beb1" stroke="#b1b1b0" stroke-miterlimit="10" stroke-width="0.25"/>
      <path d="M878.74,103.35h0a2.2,2.2,0,0,0,1.89-2.63l-4-14.92-4.92,1,4,14.93A2.56,2.56,0,0,0,878.74,103.35Z" fill="#a3beb1" stroke="#b1b1b0" stroke-miterlimit="10" stroke-width="0.25"/>
      <path d="M871.74,105.22h0a2.16,2.16,0,0,0,1.74-2.71l-4.84-14.73L863.78,89l4.84,14.73A2.6,2.6,0,0,0,871.74,105.22Z" fill="#a3beb1" stroke="#b1b1b0" stroke-miterlimit="10" stroke-width="0.25"/>
      <path d="M864.38,107h0a2.17,2.17,0,0,0,1.74-2.7l-4.84-14.74-4.86,1.2,4.84,14.74A2.6,2.6,0,0,0,864.38,107Z" fill="#a3beb1" stroke="#b1b1b0" stroke-miterlimit="10" stroke-width="0.25"/>
      <path d="M857,108.85h0a2.17,2.17,0,0,0,1.74-2.71l-4.85-14.73-4.86,1.2,4.85,14.73A2.6,2.6,0,0,0,857,108.85Z" fill="#a3beb1" stroke="#b1b1b0" stroke-miterlimit="10" stroke-width="0.25"/>
      <path d="M849.66,110.66h0a2.15,2.15,0,0,0,1.73-2.7l-4.84-14.74-4.86,1.2,4.84,14.74A2.61,2.61,0,0,0,849.66,110.66Z" fill="#a3beb1" stroke="#b1b1b0" stroke-miterlimit="10" stroke-width="0.25"/>
      <path d="M842.64,112.43h0a2.16,2.16,0,0,0,1.69-2.73L839.19,95l-4.84,1.27L839.49,111A2.61,2.61,0,0,0,842.64,112.43Z" fill="#a3beb1" stroke="#b1b1b0" stroke-miterlimit="10" stroke-width="0.25"/>
      <path d="M835.32,114.36h0a2.16,2.16,0,0,0,1.68-2.73L831.86,97,827,98.24l5.14,14.66A2.61,2.61,0,0,0,835.32,114.36Z" fill="#a3beb1" stroke="#b1b1b0" stroke-miterlimit="10" stroke-width="0.25"/>
      <path d="M828,116.28h0a2.16,2.16,0,0,0,1.69-2.73l-5.14-14.66-4.84,1.28,5.14,14.65A2.61,2.61,0,0,0,828,116.28Z" fill="#a3beb1" stroke="#b1b1b0" stroke-miterlimit="10" stroke-width="0.25"/>
      <path d="M820.67,118.21h0a2.16,2.16,0,0,0,1.68-2.73l-5.14-14.66-4.84,1.27,5.14,14.66A2.62,2.62,0,0,0,820.67,118.21Z" fill="#a3beb1" stroke="#b1b1b0" stroke-miterlimit="10" stroke-width="0.25"/>
      <path d="M813.55,120.08h0a2.14,2.14,0,0,0,1.65-2.74l-5.32-14.61-4.82,1.32,5.32,14.61A2.61,2.61,0,0,0,813.55,120.08Z" fill="#a3beb1" stroke="#b1b1b0" stroke-miterlimit="10" stroke-width="0.25"/>
      <path d="M806.25,122.08h0a2.14,2.14,0,0,0,1.65-2.74l-5.33-14.61L797.75,106l5.33,14.61A2.61,2.61,0,0,0,806.25,122.08Z" fill="#a3beb1" stroke="#b1b1b0" stroke-miterlimit="10" stroke-width="0.25"/>
      <path d="M798.94,124.08h0a2.14,2.14,0,0,0,1.65-2.75l-5.32-14.61L790.45,108l5.32,14.61A2.63,2.63,0,0,0,798.94,124.08Z" fill="#a3beb1" stroke="#b1b1b0" stroke-miterlimit="10" stroke-width="0.25"/>
      <path d="M791.64,126.08h0a2.16,2.16,0,0,0,1.65-2.75L788,108.72,783.15,110l5.32,14.61A2.63,2.63,0,0,0,791.64,126.08Z" fill="#a3beb1" stroke="#b1b1b0" stroke-miterlimit="10" stroke-width="0.25"/>
      <path d="M785.35,127.9h0a2.11,2.11,0,0,0,1.48-2.82l-6.18-14.35-4.73,1.53,6.18,14.35A2.66,2.66,0,0,0,785.35,127.9Z" fill="#a3beb1" stroke="#b1b1b0" stroke-miterlimit="10" stroke-width="0.25"/>
      <path d="M778.15,130.23h0a2.12,2.12,0,0,0,1.49-2.82l-6.18-14.35-4.74,1.53,6.18,14.35A2.67,2.67,0,0,0,778.15,130.23Z" fill="#a3beb1" stroke="#b1b1b0" stroke-miterlimit="10" stroke-width="0.25"/>
      <path d="M771,132.55h0a2.11,2.11,0,0,0,1.48-2.81l-6.18-14.36-4.73,1.53,6.18,14.36A2.66,2.66,0,0,0,771,132.55Z" fill="#a3beb1" stroke="#b1b1b0" stroke-miterlimit="10" stroke-width="0.25"/>
      <path d="M763.76,134.88h0a2.12,2.12,0,0,0,1.49-2.82l-6.18-14.35-4.74,1.53,6.18,14.35A2.66,2.66,0,0,0,763.76,134.88Z" fill="#a3beb1" stroke="#b1b1b0" stroke-miterlimit="10" stroke-width="0.25"/>
      <path d="M756.92,137.18h0a2.1,2.1,0,0,0,1.43-2.83l-6.47-14.26-4.7,1.6L753.65,136A2.65,2.65,0,0,0,756.92,137.18Z" fill="#a3beb1" stroke="#b1b1b0" stroke-miterlimit="10" stroke-width="0.25"/>
      <path d="M749.77,139.62h0a2.1,2.1,0,0,0,1.42-2.83l-6.46-14.26-4.71,1.6,6.47,14.26A2.68,2.68,0,0,0,749.77,139.62Z" fill="#a3beb1" stroke="#b1b1b0" stroke-miterlimit="10" stroke-width="0.25"/>
      <path d="M742.61,142.06h0a2.11,2.11,0,0,0,1.43-2.84L737.57,125l-4.71,1.6,6.47,14.25A2.67,2.67,0,0,0,742.61,142.06Z" fill="#a3beb1" stroke="#b1b1b0" stroke-miterlimit="10" stroke-width="0.25"/>
      <path d="M735.45,144.5h0a2.11,2.11,0,0,0,1.43-2.84l-6.47-14.26-4.7,1.6,6.46,14.26A2.67,2.67,0,0,0,735.45,144.5Z" fill="#a3beb1" stroke="#b1b1b0" stroke-miterlimit="10" stroke-width="0.25"/>
      <path d="M728.5,146.88h0a2.1,2.1,0,0,0,1.39-2.85l-6.65-14.2-4.68,1.65,6.65,14.19A2.67,2.67,0,0,0,728.5,146.88Z" fill="#a3beb1" stroke="#b1b1b0" stroke-miterlimit="10" stroke-width="0.25"/>
      <path d="M721.36,149.39h0a2.1,2.1,0,0,0,1.4-2.85l-6.65-14.2L711.42,134l6.65,14.19A2.68,2.68,0,0,0,721.36,149.39Z" fill="#a3beb1" stroke="#b1b1b0" stroke-miterlimit="10" stroke-width="0.25"/>
      <path d="M714.23,151.9h0a2.11,2.11,0,0,0,1.39-2.85L709,134.85l-4.68,1.65,6.65,14.19A2.67,2.67,0,0,0,714.23,151.9Z" fill="#a3beb1" stroke="#b1b1b0" stroke-miterlimit="10" stroke-width="0.25"/>
      <path d="M707.86,154.14h0a2.09,2.09,0,0,0,1.26-2.9l-7.33-14-4.6,1.82,7.33,13.94A2.69,2.69,0,0,0,707.86,154.14Z" fill="#a3beb1" stroke="#b1b1b0" stroke-miterlimit="10" stroke-width="0.25"/>
      <path d="M701.08,156.73h0a2.07,2.07,0,0,0,1.2-2.92L694.7,140l-4.57,1.88,7.59,13.84A2.7,2.7,0,0,0,701.08,156.73Z" fill="#a3beb1" stroke="#b1b1b0" stroke-miterlimit="10" stroke-width="0.25"/>
      <path d="M694,159.52h0a2.07,2.07,0,0,0,1.2-2.91l-7.59-13.84-4.56,1.87,7.58,13.84A2.72,2.72,0,0,0,694,159.52Z" fill="#a3beb1" stroke="#b1b1b0" stroke-miterlimit="10" stroke-width="0.25"/>
      <path d="M687,162.21h0a2.07,2.07,0,0,0,1.19-2.92l-7.61-13.83L676,147.34l7.61,13.83A2.72,2.72,0,0,0,687,162.21Z" fill="#a3beb1" stroke="#b1b1b0" stroke-miterlimit="10" stroke-width="0.25"/>
      <path d="M680.12,165.06h0a2.06,2.06,0,0,0,1.17-2.92l-7.72-13.78L669,150.27l7.72,13.78A2.71,2.71,0,0,0,680.12,165.06Z" fill="#a3beb1" stroke="#b1b1b0" stroke-miterlimit="10" stroke-width="0.25"/>
      <path d="M673.17,167.93h0a2.06,2.06,0,0,0,1.16-2.93l-7.78-13.76L662,153.17l7.78,13.75A2.72,2.72,0,0,0,673.17,167.93Z" fill="#a3beb1" stroke="#b1b1b0" stroke-miterlimit="10" stroke-width="0.25"/>
      <path d="M666.61,170.93h0a2.06,2.06,0,0,0,1.09-3l-8.1-13.61-4.49,2,8.1,13.62A2.72,2.72,0,0,0,666.61,170.93Z" fill="#a3beb1" stroke="#b1b1b0" stroke-miterlimit="10" stroke-width="0.25"/>
      <path d="M659.65,174h0a2.06,2.06,0,0,0,1.09-3l-8.11-13.62-4.49,2L656.25,173A2.73,2.73,0,0,0,659.65,174Z" fill="#a3beb1" stroke="#b1b1b0" stroke-miterlimit="10" stroke-width="0.25"/>
      <path d="M653,177h0a2.05,2.05,0,0,0,1-3l-8.31-13.53-4.46,2.06,8.31,13.53A2.74,2.74,0,0,0,653,177Z" fill="#a3beb1" stroke="#b1b1b0" stroke-miterlimit="10" stroke-width="0.25"/>
      <path d="M646.19,180.24h0a2.06,2.06,0,0,0,1-3L638.8,163.8l-4.45,2.08,8.41,13.47A2.74,2.74,0,0,0,646.19,180.24Z" fill="#a3beb1" stroke="#b1b1b0" stroke-miterlimit="10" stroke-width="0.25"/>
      <path d="M639.34,183.41h0a2.05,2.05,0,0,0,1-3L631.88,167l-4.43,2.09,8.46,13.45A2.73,2.73,0,0,0,639.34,183.41Z" fill="#a3beb1" stroke="#b1b1b0" stroke-miterlimit="10" stroke-width="0.25"/>
      <path d="M632.53,186.6h0a2,2,0,0,0,1-3L625,170.21l-4.43,2.12,8.55,13.41A2.74,2.74,0,0,0,632.53,186.6Z" fill="#a3beb1" stroke="#b1b1b0" stroke-miterlimit="10" stroke-width="0.25"/>
      <path d="M624.09,190.36h0a2.09,2.09,0,0,0,1.25-2.91L618,173.53l-4.59,1.83,7.37,13.92A2.7,2.7,0,0,0,624.09,190.36Z" fill="#a3beb1" stroke="#b1b1b0" stroke-miterlimit="10" stroke-width="0.25"/>
      <path d="M617.08,193.09h0a2.08,2.08,0,0,0,1.23-2.91l-7.44-13.9-4.58,1.84,7.43,13.9A2.71,2.71,0,0,0,617.08,193.09Z" fill="#a3beb1" stroke="#b1b1b0" stroke-miterlimit="10" stroke-width="0.25"/>
      <path d="M610.44,196h0a2.07,2.07,0,0,0,1.17-2.93l-7.77-13.76-4.54,1.92L607.06,195A2.72,2.72,0,0,0,610.44,196Z" fill="#a3beb1" stroke="#b1b1b0" stroke-miterlimit="10" stroke-width="0.25"/>
      <path d="M603.41,198.87h0a2.07,2.07,0,0,0,1.16-2.93l-7.76-13.77-4.54,1.92L600,197.86A2.71,2.71,0,0,0,603.41,198.87Z" fill="#a3beb1" stroke="#b1b1b0" stroke-miterlimit="10" stroke-width="0.25"/>
      <path d="M596.64,201.8h0a2.06,2.06,0,0,0,1.11-2.94l-8-13.68-4.51,2,8,13.68A2.73,2.73,0,0,0,596.64,201.8Z" fill="#a3beb1" stroke="#b1b1b0" stroke-miterlimit="10" stroke-width="0.25"/>
      <path d="M589.79,204.89h0a2.06,2.06,0,0,0,1.09-2.95l-8.07-13.63-4.49,2,8.07,13.63A2.72,2.72,0,0,0,589.79,204.89Z" fill="#a3beb1" stroke="#b1b1b0" stroke-miterlimit="10" stroke-width="0.25"/>
      <path d="M582.86,207.93h0a2.06,2.06,0,0,0,1.09-3l-8.13-13.6-4.49,2,8.13,13.6A2.71,2.71,0,0,0,582.86,207.93Z" fill="#a3beb1" stroke="#b1b1b0" stroke-miterlimit="10" stroke-width="0.25"/>
      <path d="M576,211h0a2,2,0,0,0,1.06-3l-8.2-13.57-4.48,2,8.21,13.57A2.72,2.72,0,0,0,576,211Z" fill="#a3beb1" stroke="#b1b1b0" stroke-miterlimit="10" stroke-width="0.25"/>
      <path d="M569.76,214.33h0a2,2,0,0,0,.89-3l-9-13.2-4.35,2.23,9,13.19A2.75,2.75,0,0,0,569.76,214.33Z" fill="#a3beb1" stroke="#b1b1b0" stroke-miterlimit="10" stroke-width="0.25"/>
      <path d="M563.17,217.7h0a2,2,0,0,0,.89-3l-9-13.2-4.35,2.22,9,13.2A2.76,2.76,0,0,0,563.17,217.7Z" fill="#a3beb1" stroke="#b1b1b0" stroke-miterlimit="10" stroke-width="0.25"/>
      <path d="M556.57,221.07h0a2,2,0,0,0,.89-3l-9-13.19-4.36,2.22,9,13.2A2.75,2.75,0,0,0,556.57,221.07Z" fill="#a3beb1" stroke="#b1b1b0" stroke-miterlimit="10" stroke-width="0.25"/>
      <path d="M550,224.44h0a2,2,0,0,0,.89-3l-9-13.19-4.35,2.22,9,13.2A2.76,2.76,0,0,0,550,224.44Z" fill="#a3beb1" stroke="#b1b1b0" stroke-miterlimit="10" stroke-width="0.25"/>
      <path d="M543.71,227.68h0a2,2,0,0,0,.83-3l-9.25-13L531,213.91,540.23,227A2.76,2.76,0,0,0,543.71,227.68Z" fill="#a3beb1" stroke="#b1b1b0" stroke-miterlimit="10" stroke-width="0.25"/>
      <path d="M537.18,231.15h0a2,2,0,0,0,.84-3l-9.26-13-4.3,2.29,9.25,13.05A2.74,2.74,0,0,0,537.18,231.15Z" fill="#a3beb1" stroke="#b1b1b0" stroke-miterlimit="10" stroke-width="0.25"/>
      <path d="M530.66,234.62h0a2,2,0,0,0,.83-3l-9.25-13.05-4.31,2.29,9.25,13.05A2.76,2.76,0,0,0,530.66,234.62Z" fill="#a3beb1" stroke="#b1b1b0" stroke-miterlimit="10" stroke-width="0.25"/>
      <path d="M524.13,238.09h0a2,2,0,0,0,.84-3L515.71,222l-4.3,2.29,9.25,13.05A2.76,2.76,0,0,0,524.13,238.09Z" fill="#a3beb1" stroke="#b1b1b0" stroke-miterlimit="10" stroke-width="0.25"/>
      <path d="M517.8,241.46h0a2,2,0,0,0,.79-3l-9.41-13-4.28,2.33,9.41,13A2.77,2.77,0,0,0,517.8,241.46Z" fill="#a3beb1" stroke="#b1b1b0" stroke-miterlimit="10" stroke-width="0.25"/>
      <path d="M511.32,245h0a2,2,0,0,0,.79-3l-9.42-13-4.27,2.33,9.41,13A2.78,2.78,0,0,0,511.32,245Z" fill="#a3beb1" stroke="#b1b1b0" stroke-miterlimit="10" stroke-width="0.25"/>
      <path d="M504.83,248.53h0a2,2,0,0,0,.8-3l-9.42-13-4.28,2.33,9.42,13A2.77,2.77,0,0,0,504.83,248.53Z" fill="#a3beb1" stroke="#b1b1b0" stroke-miterlimit="10" stroke-width="0.25"/>
      <path d="M498.35,252.06h0a2,2,0,0,0,.8-3l-9.42-13-4.28,2.33,9.42,13A2.76,2.76,0,0,0,498.35,252.06Z" fill="#a3beb1" stroke="#b1b1b0" stroke-miterlimit="10" stroke-width="0.25"/>
      <path d="M492.79,255.2h0a2,2,0,0,0,.62-3l-10.17-12.53-4.14,2.51,10.17,12.54A2.78,2.78,0,0,0,492.79,255.2Z" fill="#a3beb1" stroke="#b1b1b0" stroke-miterlimit="10" stroke-width="0.25"/>
      <path d="M486.51,259h0a2,2,0,0,0,.62-3L477,243.45,472.82,246,483,258.5A2.8,2.8,0,0,0,486.51,259Z" fill="#a3beb1" stroke="#b1b1b0" stroke-miterlimit="10" stroke-width="0.25"/>
      <path d="M480.23,262.86h0a2,2,0,0,0,.62-3.05l-10.17-12.54-4.14,2.52,10.17,12.53A2.79,2.79,0,0,0,480.23,262.86Z" fill="#a3beb1" stroke="#b1b1b0" stroke-miterlimit="10" stroke-width="0.25"/>
      <path d="M474,266.68h0a2,2,0,0,0,.61-3.05L464.39,251.1l-4.13,2.52,10.17,12.53A2.78,2.78,0,0,0,474,266.68Z" fill="#a3beb1" stroke="#b1b1b0" stroke-miterlimit="10" stroke-width="0.25"/>
      <path d="M468,270.41h0a2,2,0,0,0,.56-3.06L458.14,255l-4.09,2.58,10.42,12.38A2.79,2.79,0,0,0,468,270.41Z" fill="#a3beb1" stroke="#b1b1b0" stroke-miterlimit="10" stroke-width="0.25"/>
      <path d="M461.79,274.34h0a2,2,0,0,0,.55-3.06L451.92,258.9l-4.08,2.58,10.42,12.38A2.79,2.79,0,0,0,461.79,274.34Z" fill="#a3beb1" stroke="#b1b1b0" stroke-miterlimit="10" stroke-width="0.25"/>
      <path d="M455.58,278.26h0a2,2,0,0,0,.55-3.05l-10.42-12.38-4.08,2.58,10.42,12.38A2.78,2.78,0,0,0,455.58,278.26Z" fill="#a3beb1" stroke="#b1b1b0" stroke-miterlimit="10" stroke-width="0.25"/>
      <path d="M449.37,282.19h0a2,2,0,0,0,.55-3.06L439.5,266.76l-4.09,2.57,10.42,12.38A2.8,2.8,0,0,0,449.37,282.19Z" fill="#a3beb1" stroke="#b1b1b0" stroke-miterlimit="10" stroke-width="0.25"/>
      <path d="M443.33,286h0a2,2,0,0,0,.52-3.07l-10.58-12.27-4,2.61,10.58,12.28A2.79,2.79,0,0,0,443.33,286Z" fill="#a3beb1" stroke="#b1b1b0" stroke-miterlimit="10" stroke-width="0.25"/>
      <path d="M437.16,290h0a2,2,0,0,0,.52-3.07L427.1,274.67l-4.05,2.61,10.58,12.28A2.79,2.79,0,0,0,437.16,290Z" fill="#a3beb1" stroke="#b1b1b0" stroke-miterlimit="10" stroke-width="0.25"/>
      <path d="M431,294h0a2,2,0,0,0,.52-3.07l-10.58-12.27-4.05,2.61,10.58,12.28A2.78,2.78,0,0,0,431,294Z" fill="#a3beb1" stroke="#b1b1b0" stroke-miterlimit="10" stroke-width="0.25"/>
      <path d="M425.49,297.56h0a2,2,0,0,0,.37-3.08l-11.17-11.89-3.92,2.77,11.16,11.88A2.81,2.81,0,0,0,425.49,297.56Z" fill="#a3beb1" stroke="#b1b1b0" stroke-miterlimit="10" stroke-width="0.25"/>
      <path d="M419.68,301.55h0a2,2,0,0,0,.31-3.08l-11.37-11.73-3.87,2.82,11.37,11.72A2.8,2.8,0,0,0,419.68,301.55Z" fill="#a3beb1" stroke="#b1b1b0" stroke-miterlimit="10" stroke-width="0.25"/>
      <path d="M413.69,305.79h0a2,2,0,0,0,.31-3.08L402.62,291l-3.87,2.82,11.38,11.73A2.81,2.81,0,0,0,413.69,305.79Z" fill="#a3beb1" stroke="#b1b1b0" stroke-miterlimit="10" stroke-width="0.25"/>
      <path d="M407.66,309.93h0a2,2,0,0,0,.3-3.08l-11.4-11.71L392.69,298l11.41,11.71A2.79,2.79,0,0,0,407.66,309.93Z" fill="#a3beb1" stroke="#b1b1b0" stroke-miterlimit="10" stroke-width="0.25"/>
      <path d="M401.84,314.21h0a2,2,0,0,0,.28-3.09l-11.5-11.64-3.84,2.84L398.27,314A2.83,2.83,0,0,0,401.84,314.21Z" fill="#a3beb1" stroke="#b1b1b0" stroke-miterlimit="10" stroke-width="0.25"/>
      <path d="M396,318.5h0a2,2,0,0,0,.27-3.09L384.67,303.8l-3.82,2.86,11.54,11.61A2.81,2.81,0,0,0,396,318.5Z" fill="#a3beb1" stroke="#b1b1b0" stroke-miterlimit="10" stroke-width="0.25"/>
      <path d="M390.48,322.84h0a2,2,0,0,0,.2-3.09l-11.82-11.4-3.76,2.93,11.82,11.39A2.79,2.79,0,0,0,390.48,322.84Z" fill="#a3beb1" stroke="#b1b1b0" stroke-miterlimit="10" stroke-width="0.25"/>
      <path d="M384.63,327.3h0a2,2,0,0,0,.19-3.09L373,312.81l-3.76,2.92,11.81,11.4A2.82,2.82,0,0,0,384.63,327.3Z" fill="#a3beb1" stroke="#b1b1b0" stroke-miterlimit="10" stroke-width="0.25"/>
      <path d="M379.05,331.72h0a2,2,0,0,0,.14-3.09l-12-11.27-3.72,3,12,11.27A2.81,2.81,0,0,0,379.05,331.72Z" fill="#a3beb1" stroke="#b1b1b0" stroke-miterlimit="10" stroke-width="0.25"/>
      <path id="FF3" d="M373.44,336.32h0a2,2,0,0,0,.12-3.09L361.49,322l-3.69,3,12.07,11.19A2.79,2.79,0,0,0,373.44,336.32Z" fill="#a3beb1" stroke="#b1b1b0" stroke-miterlimit="10" stroke-width="0.25"/>
      <path id="FF2" d="M367.74,340.89h0a2,2,0,0,0,.11-3.1l-12.12-11.16-3.68,3,12.12,11.16A2.81,2.81,0,0,0,367.74,340.89Z" fill="#a3beb1" stroke="#b1b1b0" stroke-miterlimit="10" stroke-width="0.25"/>
      <path id="FF1" d="M362.09,345.47h0a2,2,0,0,0,.09-3.1L350,331.27l-3.66,3,12.18,11.11A2.83,2.83,0,0,0,362.09,345.47Z" fill="#a3beb1" stroke="#b1b1b0" stroke-miterlimit="10" stroke-width="0.25"/>
    </g>
    <g id="tower">
      <path id="TW1" d="M1141.78,105.6h7.36a0,0,0,0,1,0,0V123a2.83,2.83,0,0,1-2.83,2.83h-1.69a2.83,2.83,0,0,1-2.83-2.83V105.6A0,0,0,0,1,1141.78,105.6Z" fill="#a3beb1" stroke="#b1b1b0" stroke-miterlimit="10" stroke-width="0.25"/>
      <path id="TW2" d="M1156.51,105.6h7.36a0,0,0,0,1,0,0V123a2.83,2.83,0,0,1-2.83,2.83h-1.69a2.83,2.83,0,0,1-2.83-2.83V105.6A0,0,0,0,1,1156.51,105.6Z" fill="#a3beb1" stroke="#b1b1b0" stroke-miterlimit="10" stroke-width="0.25"/>
      <path id="TW3" d="M1171.24,105.6h7.36a0,0,0,0,1,0,0V123a2.83,2.83,0,0,1-2.83,2.83h-1.69a2.83,2.83,0,0,1-2.83-2.83V105.6A0,0,0,0,1,1171.24,105.6Z" fill="#a3beb1" stroke="#b1b1b0" stroke-miterlimit="10" stroke-width="0.25"/>
      <path id="TW4" d="M1186,105.6h7.36a0,0,0,0,1,0,0V123a2.83,2.83,0,0,1-2.83,2.83h-1.69A2.83,2.83,0,0,1,1186,123V105.6A0,0,0,0,1,1186,105.6Z" fill="#a3beb1" stroke="#b1b1b0" stroke-miterlimit="10" stroke-width="0.25"/>
      <path id="TW5" d="M1200.7,105.6h7.36a0,0,0,0,1,0,0V123a2.83,2.83,0,0,1-2.83,2.83h-1.69a2.83,2.83,0,0,1-2.83-2.83V105.6A0,0,0,0,1,1200.7,105.6Z" fill="#a3beb1" stroke="#b1b1b0" stroke-miterlimit="10" stroke-width="0.25"/>
      <path id="TW6" d="M1215.43,105.6h7.36a0,0,0,0,1,0,0V123a2.83,2.83,0,0,1-2.83,2.83h-1.69a2.83,2.83,0,0,1-2.83-2.83V105.6A0,0,0,0,1,1215.43,105.6Z" fill="#a3beb1" stroke="#b1b1b0" stroke-miterlimit="10" stroke-width="0.25"/>
      <path id="TW7" d="M1230.17,105.6h7.36a0,0,0,0,1,0,0V123a2.83,2.83,0,0,1-2.83,2.83H1233a2.83,2.83,0,0,1-2.83-2.83V105.6A0,0,0,0,1,1230.17,105.6Z" fill="#a3beb1" stroke="#b1b1b0" stroke-miterlimit="10" stroke-width="0.25"/>
      <path id="TW8" d="M1244.9,105.6h7.36a0,0,0,0,1,0,0V123a2.83,2.83,0,0,1-2.83,2.83h-1.69a2.83,2.83,0,0,1-2.83-2.83V105.6A0,0,0,0,1,1244.9,105.6Z" fill="#a3beb1" stroke="#b1b1b0" stroke-miterlimit="10" stroke-width="0.25"/>
      <path id="TW9" d="M1259.63,105.6H1267a0,0,0,0,1,0,0V123a2.83,2.83,0,0,1-2.83,2.83h-1.69a2.83,2.83,0,0,1-2.83-2.83V105.6A0,0,0,0,1,1259.63,105.6Z" fill="#a3beb1" stroke="#b1b1b0" stroke-miterlimit="10" stroke-width="0.25"/>
      <path id="TW10" d="M1274.36,105.6h7.36a0,0,0,0,1,0,0V123a2.83,2.83,0,0,1-2.83,2.83h-1.69a2.83,2.83,0,0,1-2.83-2.83V105.6A0,0,0,0,1,1274.36,105.6Z" fill="#a3beb1" stroke="#b1b1b0" stroke-miterlimit="10" stroke-width="0.25"/>
    </g>
    <rect id="bunker-2" data-name="bunker" x="1308.03" y="266.93" width="7.44" height="49.24" fill="#a3beb1" stroke="#b1b1b0" stroke-miterlimit="10" stroke-width="0.25"/>
    <rect id="cantiere-2" data-name="cantiere" x="1281.42" y="396.94" width="7.74" height="23.4" fill="#a3beb1" stroke="#b1b1b0" stroke-miterlimit="10" stroke-width="0.25"/>
  </g>
  <g id="Icone">
    <polygon points="1214.33 66.24 1206.65 72.39 1196.86 71.31 1190.71 63.62 1191.79 53.84 1199.48 47.69 1209.26 48.77 1215.41 56.45 1214.33 66.24" stroke="#000" stroke-miterlimit="10"/>
  </g>
</svg>
