<svg xmlns="http://www.w3.org/2000/svg" viewBox="0 0 1261.42 883.82"><title>mappaPtrT_negozi_giardini</title><g id="Livello_6" data-name="Livello 6"><g id="banchina"><polygon points="804.18 445.78 804.18 449.14 810.16 445.78 804.18 445.78" fill="none"/><path d="M1311.67,352.24c.25-.27-.29-18.45-.29-18.45v16.94h-17.33v118.8l15.91-3.37S1311.43,352.5,1311.67,352.24Z" transform="translate(-117.74 -120.66)" fill="none"/><path d="M1052.45,565.53l-.33.12h.33Z" transform="translate(-117.74 -120.66)" fill="none"/><path d="M863.94,570.34v-3.9h-5.49v3h0a12,12,0,0,1,3.8,8.72h0a12,12,0,0,1-4,8.86h.56v3.68h-8.44v0l12.21,0Z" transform="translate(-117.74 -120.66)" fill="none"/><path d="M726.05,627.33v16a11.8,11.8,0,0,1-1.08,4.93,10.79,10.79,0,0,1,4.19,1.23V627.33Z" transform="translate(-117.74 -120.66)" fill="none"/><path d="M425.48,705v-.6H412.09a12,12,0,0,1-8.88-4l.17,4.57Z" transform="translate(-117.74 -120.66)" fill="none"/><polygon points="1176.04 85.2 1176.05 85.2 1176.04 85.2 1176.04 85.2" fill="none"/><path d="M656.26,675.17h-3.61a12,12,0,0,1-4,7.77v9.67H643v.06h14Z" transform="translate(-117.74 -120.66)" fill="none"/><path d="M577.32,701.8h-.69a12,12,0,0,1-7.09,3.15v1.73h1.94Z" transform="translate(-117.74 -120.66)" fill="none"/><path d="M1366.31,204.4l-2-1.47s-1.86.33-1.79,0-16.89,2.91-17.12,2.91l-17.35-.43c-26-.43-49.91-16.84-49.91-16.84l-20.73-12.45-21.14,11.73-.15,8.46H1123.52V164.06a12,12,0,0,0-12-12H953.45a12,12,0,0,0-11.16,7.63H897.22a12,12,0,0,0-12,12v.22H837.87a12,12,0,0,0-12,12v2.34H798.76a12,12,0,0,0-11.83,10.08h-53a12,12,0,0,0-12,12v1.07h-17a12,12,0,0,0-12,12v6.27H647.4a12,12,0,0,0-12,12v7.46H598.8a12,12,0,0,0-12,12v8.44h-8.15a12,12,0,0,0-10.76,6.72,12,12,0,0,0-8.42-3.47h-2.24a12,12,0,0,0-12,12V287H517.36a12,12,0,0,0-12,12v6.08H491.28a12,12,0,0,0-12,12v.16h-6.41a12,12,0,0,0-11.11,7.5,11.78,11.78,0,0,0-5.38-1.31h0a11.9,11.9,0,0,0-11.87,11.87v6.83H428a12,12,0,0,0-12,12v5.39h-5.18a12,12,0,0,0-12,12h-15a8.84,8.84,0,0,0-8.81,8.81,8.72,8.72,0,0,0,1.45,4.83H374.1a12,12,0,0,0-11.28,8h-4.14a12.05,12.05,0,0,0-11.7,9.37h-2.8A12,12,0,0,0,334.8,407h-.94a12,12,0,0,0-12,12v.24a10.74,10.74,0,0,0-1.4-.09,11.76,11.76,0,0,0-11.63,10.36,12.1,12.1,0,0,0-4.5,4.14h-7.55a12,12,0,0,0-12,11.63,9.54,9.54,0,0,0-7.71,9.32v1.87H265.35a12,12,0,0,0-12,12v8.09C206.75,494.08,173,545,173,605,173,679.55,225,740,289,740c47.49,0,88.31-33.21,106.25-80.75a11.88,11.88,0,0,0,4.83,1.78v2.36l1.6-2.24,1.52,39.32c.42,3.2.63,2.68,4.25,4.58h20a21.56,21.56,0,0,0,4.87,12.71c1.11,1.31,6.66,7.95,15.31,7.32,7.7-.55,12.07-6.44,12.71-7.32a18.31,18.31,0,0,0,3.35-11h48.07s15.87,29.45,35.89,0h21.84V705a12,12,0,0,0,7.09-3.15h51.9s5.79-2.26,11.1-9.13H643v-.06h5.62v-9.67a12,12,0,0,0,4-7.77h3.61l-.23-5.49,39.35-.06s8.07-.72,11.26-13.94v-1.47l22.52-.17v-4.55a10.79,10.79,0,0,0-4.19-1.23,11.8,11.8,0,0,0,1.08-4.93v-16h3.11v-5.11h38s6.12-5.56,7.3-10.54l17,.25.49-9.38h37.3s8.16-6.46,10.94-11.88l10.15,0v0h8.44V587h-.56a12,12,0,0,0,4-8.86h0a12,12,0,0,0-3.8-8.72h0v-3h5.49v3.9h57l.95-.53v-3.37h6l124.22-.79.33-.12-.49-20.86,154-.24,79.31-20.63q4.38-14.49,8.75-29V350.73h17.33V333.79h55.27V205.86Zm-72.52,1.46Z" transform="translate(-117.74 -120.66)" fill="#cedcf0"/><path d="M1311.38,333.79s.54,18.18.29,18.45S1310,466.16,1310,466.16l-9.75,4.79-.16,44.31-1.34,25.57-92.73,3.6-154,.24.49,20.86v.12h-.33l-124.22.79-6,3.37-.95.53h-57l-1.33,20.37-12.21,0-11.18-.1a22.15,22.15,0,0,1-3.68,6.25,22.64,22.64,0,0,1-7.26,5.71H792l-.49,9.38-17-.25c-1.18,5-7.3,10.54-7.3,10.54h-38V654l-22.52.17v1.47a22.91,22.91,0,0,1-11.26,13.94l-39.35.06.23,5.49.75,17.5H643l-4.68.08a18.34,18.34,0,0,1-9.82,9H577.32l-5.84,4.88H547.7a18.63,18.63,0,0,1-5.66,8.71,18.17,18.17,0,0,1-12.58,4.38c-5.73-.35-9.47-3.54-11.6-5.35a24.9,24.9,0,0,1-6.05-7.74H463.74a20.87,20.87,0,0,1-7.43,12.7,16.86,16.86,0,0,1-10.3,4c-7.66.07-12.57-5.89-13.82-7.42A21.76,21.76,0,0,1,427.5,705H403.38l-.17-4.57-1.52-39.32-1.6,2.24L389.69,678l-15.42,27-22.53,19.19-37.89,17.3-47,1.21-49-23.11L177,674l-12.71-65.64-46.59,2.28,7.46,385c25.12-1.06,73.86,8.53,85.82,5.88,56.19-12.5,85.72-19.06,148.77-42.2C822,789.7,922.65,818,1249.62,833.27c114.87-.72,117-109.66,117-109.66V333.79h-55.27Z" transform="translate(-117.74 -120.66)" fill="#ced1c7"/></g><g id="Livello_7" data-name="Livello 7"><path d="M1319.15,196.33" transform="translate(-117.74 -120.66)" fill="#fff" stroke="#000" stroke-miterlimit="10"/><path d="M156.66,608.76H138.47a153.47,153.47,0,0,1,5-35.41c9.35-35.44,29.38-59.34,41.73-71.77,14.63-15.06,30.94-30.71,49-46.55,16-14,31.64-26.63,46.67-38A1443.51,1443.51,0,0,1,607.32,220.45c100-44.11,187.45-66.59,250.89-78.78,67-12.89,117.38-16.25,162.77-19.22A875.33,875.33,0,0,1,1138.92,124c13.37,1.11,28.3,2.71,46.74,7.77a233.1,233.1,0,0,1,61,26.65s53.36,34.5,61.84,34.24c0,0,29,11.06,56.29-2.57a12.57,12.57,0,0,1,9.37.63,7.61,7.61,0,0,1,3.8,10.37c-1.18,2.67-3.46,3.89-5.2,4.79a18.56,18.56,0,0,1-8.06,2c-5.87.14-16.47,0-30.09-.63a120.84,120.84,0,0,1-25.46-4.63c-8-2.38-15.17-5.43-31-14-28.14-15.23-40.72-24.66-42.45-22.64-.72.83.28,3.77,8.78,13.58l-56.55-26-74.28-5.65L930.36,158.2,777.58,190.53,694.71,220,557.42,275.15l-150.63,85-50.91,31.6-85.32,67.42L204.2,520.58l-28.49,45Z" transform="translate(-117.74 -120.66)" fill="#6b6b6a" stroke="#666" stroke-miterlimit="10"/></g></g><g id="Livello_9" data-name="Livello 9"><rect x="954.59" y="450.34" width="65.67" height="83.33" fill="#a19f92"/><path d="M973,593.33h59.67v23l-15.34,27.34-.33,15H979.33L973,654.33H939S922,660,908,668l-42.67,21.33S861,700,862.33,700,830,715.33,830,715.33s-8.67-15.33-7-15-28-14-28-14L782.67,667l81.66-45.33,8.67,14,11-5.34L875.67,616s35.66-22.67,87-22.67V608H973Z" transform="translate(-117.74 -120.66)" fill="#a19f92"/><path d="M476,756.17c-1,0,0,25.83,0,25.83l16.33,25v18.33h35l7.67-10c94.33,18,180-50.33,180-50.33l9.67,6,32-19.67-8.42-12.66L746,708l-10-21-84,43.33,8,13.34L647.67,751,639,738.67s-50,23-61.33,20l.33,13-15.33.33L562,756.17H476" transform="translate(-117.74 -120.66)" fill="#a19f92"/><path d="M330.24,771.52V797.3l-15.42,14.77-8.33,0v27h8.42c.67,0,15.33-12.88,15.33-12.88l9.11-1.12s9.56-4,2.45-13.33l5.55-5.33,51.56-1.11-1.11-33.78Z" transform="translate(-117.74 -120.66)" fill="#a19f92"/><path d="M276.33,797.6l-23.84-11.33v12.67s2.17,3.5,6.59,12,8.83,10.83,8.83,10.83l17.25,13.33-1.75,4s18.58.28,18.42,0,0-27,0-27h0L290.91,812Z" transform="translate(-117.74 -120.66)" fill="#a19f92"/><path d="M276.33,769.6v28l-23.84-11.33h-32l-32.66-41.83-5.59,4.08s-17.91,2.83-13.08-15.75l-5.5-6.83,28.67-20,21.75,26.75-4.54,4.24,2.87,5,3.42-.59,19.91,25.59.5,2.41h2.84Z" transform="translate(-117.74 -120.66)" fill="#a19f92"/><polygon points="940.67 504.31 928.84 504.31 922.92 494.06 928.84 483.81 940.67 483.81 946.6 494.06 940.67 504.31" fill="#75a071"/><polygon points="662.16 581.49 652.24 587.95 641.68 582.59 641.05 570.76 650.97 564.3 661.52 569.66 662.16 581.49" fill="#75a071"/><polygon points="342.49 659.74 334.27 674.01 317.81 673.99 309.56 659.7 317.77 645.43 334.24 645.45 342.49 659.74" fill="#75a071"/><polygon points="208.79 650.75 200.57 665.02 184.1 665 175.85 650.71 176.98 649.29 193.44 649.31 208.79 650.75" fill="#75a071"/><path d="M131.15,764.09s12.11,27.56,26.51,53.66,26.73,37.37,26.73,37.37v-47l22.55,1.46s5.63-4.66,6.47-4.31-33.2-42.88-33.2-42.88l-28.47,20.17L137,760.54Z" transform="translate(-117.74 -120.66)" fill="#75a071"/><path d="M224.05,816.71s0,.36,0,1c-.29,7.06-2,48.21-1.42,47.83s75.16,0,75.16,0V844.68l-25.05-.83-23.17-26.31" transform="translate(-117.74 -120.66)" fill="#75a071"/><path d="M311.23,845.26c.63,0-.83,21.1,0,20.88s12.53,0,12.53,0V858s42.78,7,82.65-14l2.3,6.36L423,845.23s-6.63-16.66-7.6-19.9c-.18-.6-34.47,19.31-61,2.81h0l-19.84,17.12Z" transform="translate(-117.74 -120.66)" fill="#75a071"/><path d="M373.38,883.56l22.34,61.38s-128,49.1-195.66,59.54l-61.49-7.19,9.75-101.62s4.8-9.6,21.5-9.6S373.38,883.56,373.38,883.56Z" transform="translate(-117.74 -120.66)" fill="#9abbe4" opacity="0.64"/><polygon points="264.35 765.95 270.93 785.51 320.85 765.07 311.32 739.02 296.29 744.45 299.42 754.47 264.35 765.95" fill="#75a071"/><path d="M392.17,915.3l7.72,20.87s37.58-9.81,38.21-10.43S450.63,909,450.63,909s-2.75-14.61-8.69-13.57Z" transform="translate(-117.74 -120.66)" fill="#75a071"/><path d="M468.24,890.5s-5.84,12.73-5.22,12.73,12.11,5.22,12.11,5.22l5.22-12.94Z" transform="translate(-117.74 -120.66)" fill="#75a071"/><path d="M487.45,844.77c-9.82-1.61-13.2-.42-14.41,1.05-.85,1-3.29,4.26-2.47,3.19h0a34.28,34.28,0,0,0-1,9.94c.76,16.32,13.62,31,27.24,35.55,13.16,4.37,25.83-1.17,32.06-3.85,48.12-20.64,100.23-31,148.39-51.51h0l-2.3-6.06-78.08,21.09c-18,.12-37.6-.56-58.67-2.51C520,850,503,847.58,487.45,844.77Z" transform="translate(-117.74 -120.66)" fill="#75a071"/><path d="M221.88,911.61a73.28,73.28,0,0,1,12-.93c6.19,0,10.73,1.44,13.61,4a13,13,0,0,1,4.24,10.15c0,4.4-1.29,7.85-3.74,10.37-3.31,3.53-8.71,5.33-14.83,5.33a21.53,21.53,0,0,1-5-.43v19.44h-6.27ZM228.15,935a20.94,20.94,0,0,0,5.18.5c7.56,0,12.17-3.67,12.17-10.37,0-6.41-4.54-9.5-11.45-9.5a26.16,26.16,0,0,0-5.9.5Z" transform="translate(-117.74 -120.66)" fill="#d7eef6"/><rect x="449.82" y="868.78" width="10.12" height="10.12" transform="translate(-373.12 70.5) rotate(-18.63)" fill="#a19f92"/></g><g id="Pontili"><rect id="alfa-bravo" x="1082.69" y="216" width="8.22" height="208" fill="gray"/><rect id="charlie-delta" x="1001.3" y="207.67" width="8.22" height="216.33" fill="gray"/><rect id="eco-foxtrot" x="926.64" y="206.45" width="8.22" height="239.33" fill="gray"/><rect id="golf-hotel" x="864.19" y="199.78" width="8.22" height="246" fill="gray"/><rect id="india-juliet" x="802.42" y="189.34" width="8.22" height="260.44" fill="gray"/><rect id="kilo-lima" x="739.03" y="191" width="8.22" height="279" fill="gray"/><rect id="mike-november" x="671.19" y="202.67" width="8.22" height="289" fill="gray"/><rect id="oscar-papa" x="604.19" y="223.67" width="8.22" height="311" fill="gray"/><rect id="quebec-romeo" x="530.86" y="246" width="8.22" height="326" fill="gray"/><rect id="sierra-tango" x="451.36" y="270.67" width="8.22" height="315.67" fill="gray"/><rect id="uniform-victor" x="372.03" y="313" width="8.22" height="273.33" fill="gray"/><g id="torre"><polygon points="1139.14 56.54 997.64 79.78 1139.14 79.78 1139.14 56.54" fill="gray"/><path d="M1115.38,141.67s38.32,1.68,69.65,6.51,60.33,21.37,71.47,28.77c9.69,6.44-141.12,23.49-141.12,23.49-.85.15,0-40.94,0-40.94Z" transform="translate(-117.74 -120.66)" fill="gray"/></g><path id="frangiflutti" d="M1115.38,159.5V141.67s-28.5-3-117.67.83c-24.2,1-68.83,3.33-180.33,28.5,0,0-59.5,13.33-115.5,32.5l-53.83,20.33s-13.84,5.5-67.34,28.17l-46,22.5s-47.16,25.5-54.5,30-44.16,25.17-43.66,25.17-63.67,41.83-63.67,41.83l-77.83,54.94,8,10.89,62.16-44.16s106.5-72,169-100.84,92.5-41.83,126.34-53.83c0,0,38.83-17.83,102.33-36s128-31.67,169.5-34.17C932.38,168.33,992.05,158.67,1115.38,159.5Z" transform="translate(-117.74 -120.66)" fill="gray"/><rect id="bunker" x="1176.3" y="229.67" width="17.33" height="141.17" fill="gray"/><path d="M399.27,478.33V626.22a159.1,159.1,0,0,1-20.63,57.25,84.39,84.39,0,0,1-11,15.29,89.66,89.66,0,0,1-17.24,14.57,109.09,109.09,0,0,1-17.82,9.85l-.76.32c-22.91,9.56-50.35,7.09-50.35,7.09a113.42,113.42,0,0,1-32.74-8,111.61,111.61,0,0,1-36.24-24.33,115.28,115.28,0,0,1-20.38-28.18c-13.12-25.45-13.7-50-12.93-63.31a172.15,172.15,0,0,1,4.33-33.11A127.59,127.59,0,0,1,189.85,553a116.58,116.58,0,0,1,13.64-24.48s20.89-30.7,99.56-91.15l-8-10.89s-42,32-48.89,37.78-50.1,46.23-59,58.89a175.78,175.78,0,0,0-12.95,20.23,142.18,142.18,0,0,0-17.47,62.33c-1.25,33.43,10.3,58,15.16,68,6.43,13.26,19,38.37,47.46,56.62,34,21.8,69,19.93,81.28,18.68a111.81,111.81,0,0,0,61.1-24.66A108.86,108.86,0,0,0,380.18,705h27.31V478.33Z" transform="translate(-117.74 -120.66)" fill="gray"/><polygon id="cantiere" points="1155.39 370.84 1155.39 402.2 1127.76 402.2 1127.76 370.84 1090.91 370.84 1090.91 424 1127.76 424 1193.64 424 1193.64 402.2 1193.64 370.84 1155.39 370.84" fill="gray"/></g><g id="Posti_barca"><rect id="cnrt" x="1138.06" y="374.95" width="7.74" height="23.4" fill="#93cebc"/><rect id="bk" x="1164.67" y="244.93" width="7.44" height="49.24" fill="#93cebc"/><g id="tower"><path id="TW1" d="M998.42,83.61h7.36a0,0,0,0,1,0,0V101a2.83,2.83,0,0,1-2.83,2.83h-1.69a2.83,2.83,0,0,1-2.83-2.83V83.61A0,0,0,0,1,998.42,83.61Z" fill="#93cebc"/><path id="TW2" d="M1013.15,83.61h7.36a0,0,0,0,1,0,0V101a2.83,2.83,0,0,1-2.83,2.83H1016a2.83,2.83,0,0,1-2.83-2.83V83.61A0,0,0,0,1,1013.15,83.61Z" fill="#93cebc"/><path id="TW3" d="M1027.88,83.61h7.36a0,0,0,0,1,0,0V101a2.83,2.83,0,0,1-2.83,2.83h-1.69a2.83,2.83,0,0,1-2.83-2.83V83.61A0,0,0,0,1,1027.88,83.61Z" fill="#93cebc"/><path id="TW4" d="M1042.61,83.61H1050a0,0,0,0,1,0,0V101a2.83,2.83,0,0,1-2.83,2.83h-1.69a2.83,2.83,0,0,1-2.83-2.83V83.61A0,0,0,0,1,1042.61,83.61Z" fill="#93cebc"/><path id="TW5" d="M1057.34,83.61h7.36a0,0,0,0,1,0,0V101a2.83,2.83,0,0,1-2.83,2.83h-1.69a2.83,2.83,0,0,1-2.83-2.83V83.61A0,0,0,0,1,1057.34,83.61Z" fill="#93cebc"/><path id="TW6" d="M1072.07,83.61h7.36a0,0,0,0,1,0,0V101a2.83,2.83,0,0,1-2.83,2.83h-1.69a2.83,2.83,0,0,1-2.83-2.83V83.61A0,0,0,0,1,1072.07,83.61Z" fill="#93cebc"/><path id="TW7" d="M1086.8,83.61h7.36a0,0,0,0,1,0,0V101a2.83,2.83,0,0,1-2.83,2.83h-1.69a2.83,2.83,0,0,1-2.83-2.83V83.61A0,0,0,0,1,1086.8,83.61Z" fill="#93cebc"/><path id="TW8" d="M1101.53,83.61h7.36a0,0,0,0,1,0,0V101a2.83,2.83,0,0,1-2.83,2.83h-1.69a2.83,2.83,0,0,1-2.83-2.83V83.61A0,0,0,0,1,1101.53,83.61Z" fill="#93cebc"/><path id="TW9" d="M1116.26,83.61h7.36a0,0,0,0,1,0,0V101a2.83,2.83,0,0,1-2.83,2.83h-1.69a2.83,2.83,0,0,1-2.83-2.83V83.61A0,0,0,0,1,1116.26,83.61Z" fill="#93cebc"/><path id="TW10" d="M1131,83.61h7.36a0,0,0,0,1,0,0V101a2.83,2.83,0,0,1-2.83,2.83h-1.69A2.83,2.83,0,0,1,1131,101V83.61A0,0,0,0,1,1131,83.61Z" fill="#93cebc"/></g><g id="frangiflutti-2" data-name="frangiflutti"><path id="FF113" d="M988.65,42.29h5.05a0,0,0,0,1,0,0v15a2.53,2.53,0,0,1-2.53,2.53h0a2.53,2.53,0,0,1-2.53-2.53v-15A0,0,0,0,1,988.65,42.29Z" fill="#93cebc"/><path id="FF112" d="M981,42.29H986a0,0,0,0,1,0,0v15a2.53,2.53,0,0,1-2.53,2.53h0A2.53,2.53,0,0,1,981,57.27v-15A0,0,0,0,1,981,42.29Z" fill="#93cebc"/><path id="FF111" d="M973.34,42.29h5.05a0,0,0,0,1,0,0v15a2.53,2.53,0,0,1-2.53,2.53h0a2.53,2.53,0,0,1-2.53-2.53v-15A0,0,0,0,1,973.34,42.29Z" fill="#93cebc"/><path id="FF110" d="M965.68,42.29h5.05a0,0,0,0,1,0,0v15a2.53,2.53,0,0,1-2.53,2.53h0a2.53,2.53,0,0,1-2.53-2.53v-15a0,0,0,0,1,0,0Z" fill="#93cebc"/><path id="FF109" d="M1078.65,180.5h0a2.36,2.36,0,0,0,2.48-2.23l-.31-15.32-5,.08.31,15.32A2.38,2.38,0,0,0,1078.65,180.5Z" transform="translate(-117.74 -120.66)" fill="#93cebc"/><path id="FF108" d="M1071,180.61h0a2.36,2.36,0,0,0,2.49-2.22l-.31-15.32-5.06.08.31,15.31A2.39,2.39,0,0,0,1071,180.61Z" transform="translate(-117.74 -120.66)" fill="#93cebc"/><path id="FF107" d="M1063.34,180.73h0a2.37,2.37,0,0,0,2.48-2.22l-.31-15.32-5,.07.31,15.32A2.38,2.38,0,0,0,1063.34,180.73Z" transform="translate(-117.74 -120.66)" fill="#93cebc"/><path id="FF106" d="M1055.68,180.85h0a2.37,2.37,0,0,0,2.49-2.23l-.31-15.32-5.06.08.31,15.32A2.4,2.4,0,0,0,1055.68,180.85Z" transform="translate(-117.74 -120.66)" fill="#93cebc"/><path id="FF105" d="M1048.25,181h0a2.35,2.35,0,0,0,2.45-2.25l-.5-15.31-5,.12.5,15.32A2.39,2.39,0,0,0,1048.25,181Z" transform="translate(-117.74 -120.66)" fill="#93cebc"/><path id="FF104" d="M1040.59,181.15h0a2.35,2.35,0,0,0,2.46-2.25l-.51-15.31-5,.12L1038,179A2.4,2.4,0,0,0,1040.59,181.15Z" transform="translate(-117.74 -120.66)" fill="#93cebc"/><path id="FF103" d="M1032.94,181.34h0a2.35,2.35,0,0,0,2.45-2.25l-.5-15.31-5.05.12.5,15.32A2.39,2.39,0,0,0,1032.94,181.34Z" transform="translate(-117.74 -120.66)" fill="#93cebc"/><path id="FF102" d="M1025.28,181.53h0a2.36,2.36,0,0,0,2.46-2.25l-.51-15.31-5.05.12.5,15.32A2.4,2.4,0,0,0,1025.28,181.53Z" transform="translate(-117.74 -120.66)" fill="#93cebc"/><path id="FF101" d="M1018.65,181.79h0a2.31,2.31,0,0,0,2.32-2.35l-1.41-15.27-5,.34,1.4,15.27A2.44,2.44,0,0,0,1018.65,181.79Z" transform="translate(-117.74 -120.66)" fill="#93cebc"/><path id="FF100" d="M1011,182.32h0a2.31,2.31,0,0,0,2.32-2.35l-1.41-15.27-5,.35,1.41,15.27A2.44,2.44,0,0,0,1011,182.32Z" transform="translate(-117.74 -120.66)" fill="#93cebc"/><path d="M1003.34,182.86h0a2.32,2.32,0,0,0,2.32-2.36l-1.41-15.27-5,.35,1.4,15.27A2.45,2.45,0,0,0,1003.34,182.86Z" transform="translate(-117.74 -120.66)" fill="#93cebc"/><path d="M995.69,183.39h0A2.3,2.3,0,0,0,998,181l-1.4-15.27-5,.35L993,181.38A2.44,2.44,0,0,0,995.69,183.39Z" transform="translate(-117.74 -120.66)" fill="#93cebc"/><path d="M988.38,184h0a2.3,2.3,0,0,0,2.27-2.39l-1.71-15.25-5,.43L985.62,182A2.45,2.45,0,0,0,988.38,184Z" transform="translate(-117.74 -120.66)" fill="#93cebc"/><path d="M980.72,184.63h0a2.3,2.3,0,0,0,2.27-2.39L981.28,167l-5,.43L978,182.66A2.45,2.45,0,0,0,980.72,184.63Z" transform="translate(-117.74 -120.66)" fill="#93cebc"/><path d="M973.07,185.28h0a2.3,2.3,0,0,0,2.27-2.39l-1.72-15.25-5,.43,1.72,15.24A2.45,2.45,0,0,0,973.07,185.28Z" transform="translate(-117.74 -120.66)" fill="#93cebc"/><path d="M965.41,185.93h0a2.3,2.3,0,0,0,2.27-2.39L966,168.29l-5,.42L962.65,184A2.47,2.47,0,0,0,965.41,185.93Z" transform="translate(-117.74 -120.66)" fill="#93cebc"/><path d="M958,186.57h0a2.29,2.29,0,0,0,2.24-2.41l-1.9-15.23-5,.47,1.91,15.23A2.47,2.47,0,0,0,958,186.57Z" transform="translate(-117.74 -120.66)" fill="#93cebc"/><path d="M950.32,187.29h0a2.29,2.29,0,0,0,2.24-2.41l-1.91-15.23-5,.47,1.9,15.23A2.47,2.47,0,0,0,950.32,187.29Z" transform="translate(-117.74 -120.66)" fill="#93cebc"/><path d="M942.66,188h0a2.29,2.29,0,0,0,2.24-2.41L943,170.37l-5,.47,1.91,15.23A2.47,2.47,0,0,0,942.66,188Z" transform="translate(-117.74 -120.66)" fill="#93cebc"/><path d="M935.83,188.65h0a2.27,2.27,0,0,0,2.13-2.49L935.31,171l-5,.65L933,186.82A2.49,2.49,0,0,0,935.83,188.65Z" transform="translate(-117.74 -120.66)" fill="#93cebc"/><path d="M928.49,189.54h0a2.25,2.25,0,0,0,2.08-2.52l-2.92-15.11-5,.72,2.92,15.11A2.51,2.51,0,0,0,928.49,189.54Z" transform="translate(-117.74 -120.66)" fill="#93cebc"/><path d="M920.84,190.55h0a2.23,2.23,0,0,0,2.07-2.51L920,172.93l-5,.72,2.92,15.11A2.51,2.51,0,0,0,920.84,190.55Z" transform="translate(-117.74 -120.66)" fill="#93cebc"/><path d="M913.21,191.47h0a2.23,2.23,0,0,0,2.07-2.52l-2.95-15.11-5,.73,2.95,15.1A2.51,2.51,0,0,0,913.21,191.47Z" transform="translate(-117.74 -120.66)" fill="#93cebc"/><path d="M905.7,192.59h0a2.23,2.23,0,0,0,2-2.54L904.67,175l-5,.76,3.07,15.09A2.52,2.52,0,0,0,905.7,192.59Z" transform="translate(-117.74 -120.66)" fill="#93cebc"/><path d="M898.11,193.69h0a2.23,2.23,0,0,0,2-2.54L897,176.07l-5,.78,3.14,15.08A2.51,2.51,0,0,0,898.11,193.69Z" transform="translate(-117.74 -120.66)" fill="#93cebc"/><path d="M890.85,195h0a2.22,2.22,0,0,0,2-2.58l-3.49-15-5,.87,3.49,15A2.53,2.53,0,0,0,890.85,195Z" transform="translate(-117.74 -120.66)" fill="#93cebc"/><path d="M883.2,196.29h0a2.22,2.22,0,0,0,2-2.58l-3.49-15-4.95.87,3.49,15A2.54,2.54,0,0,0,883.2,196.29Z" transform="translate(-117.74 -120.66)" fill="#93cebc"/><path d="M875.79,197.64h0a2.21,2.21,0,0,0,1.94-2.6l-3.71-15-4.94.92,3.71,15A2.54,2.54,0,0,0,875.79,197.64Z" transform="translate(-117.74 -120.66)" fill="#93cebc"/><path d="M868.26,199.13h0a2.21,2.21,0,0,0,1.92-2.61l-3.83-15-4.93,1,3.83,14.95A2.54,2.54,0,0,0,868.26,199.13Z" transform="translate(-117.74 -120.66)" fill="#93cebc"/><path d="M860.67,200.56h0a2.2,2.2,0,0,0,1.91-2.62L858.69,183l-4.93,1,3.89,14.95A2.55,2.55,0,0,0,860.67,200.56Z" transform="translate(-117.74 -120.66)" fill="#93cebc"/><path d="M853.12,202h0a2.2,2.2,0,0,0,1.89-2.63l-4-14.93-4.92,1,4,14.93A2.57,2.57,0,0,0,853.12,202Z" transform="translate(-117.74 -120.66)" fill="#93cebc"/><path d="M846.13,203.88h0a2.15,2.15,0,0,0,1.73-2.7L843,186.45l-4.86,1.19L843,202.38A2.61,2.61,0,0,0,846.13,203.88Z" transform="translate(-117.74 -120.66)" fill="#93cebc"/><path d="M838.76,205.7h0A2.17,2.17,0,0,0,840.5,203l-4.84-14.73-4.86,1.2,4.84,14.73A2.59,2.59,0,0,0,838.76,205.7Z" transform="translate(-117.74 -120.66)" fill="#93cebc"/><path d="M831.4,207.51h0a2.17,2.17,0,0,0,1.74-2.7l-4.84-14.73-4.86,1.19L828.28,206A2.6,2.6,0,0,0,831.4,207.51Z" transform="translate(-117.74 -120.66)" fill="#93cebc"/><path d="M824,209.33h0a2.17,2.17,0,0,0,1.74-2.71l-4.85-14.73-4.86,1.2,4.85,14.73A2.59,2.59,0,0,0,824,209.33Z" transform="translate(-117.74 -120.66)" fill="#93cebc"/><path d="M817,211.09h0a2.16,2.16,0,0,0,1.69-2.73l-5.14-14.65L808.73,195l5.14,14.66A2.61,2.61,0,0,0,817,211.09Z" transform="translate(-117.74 -120.66)" fill="#93cebc"/><path d="M809.7,213h0a2.15,2.15,0,0,0,1.68-2.73l-5.14-14.66-4.83,1.28,5.14,14.65A2.6,2.6,0,0,0,809.7,213Z" transform="translate(-117.74 -120.66)" fill="#93cebc"/><path d="M802.37,215h0a2.16,2.16,0,0,0,1.69-2.73l-5.14-14.66-4.84,1.27,5.14,14.66A2.61,2.61,0,0,0,802.37,215Z" transform="translate(-117.74 -120.66)" fill="#93cebc"/><path d="M795.05,216.88h0a2.15,2.15,0,0,0,1.68-2.73l-5.14-14.66-4.83,1.27,5.13,14.66A2.62,2.62,0,0,0,795.05,216.88Z" transform="translate(-117.74 -120.66)" fill="#93cebc"/><path d="M787.93,218.75h0a2.14,2.14,0,0,0,1.65-2.74l-5.32-14.61-4.82,1.31,5.32,14.61A2.62,2.62,0,0,0,787.93,218.75Z" transform="translate(-117.74 -120.66)" fill="#93cebc"/><path d="M780.63,220.75h0a2.15,2.15,0,0,0,1.65-2.75L777,203.39l-4.82,1.32,5.32,14.61A2.63,2.63,0,0,0,780.63,220.75Z" transform="translate(-117.74 -120.66)" fill="#93cebc"/><path d="M773.33,222.75h0A2.16,2.16,0,0,0,775,220l-5.33-14.61-4.82,1.32,5.33,14.61A2.63,2.63,0,0,0,773.33,222.75Z" transform="translate(-117.74 -120.66)" fill="#93cebc"/><path d="M766,224.74h0a2.14,2.14,0,0,0,1.65-2.74l-5.32-14.61-4.82,1.32,5.32,14.61A2.61,2.61,0,0,0,766,224.74Z" transform="translate(-117.74 -120.66)" fill="#93cebc"/><path d="M759.73,226.57h0a2.12,2.12,0,0,0,1.48-2.82L755,209.4l-4.73,1.53,6.18,14.35A2.66,2.66,0,0,0,759.73,226.57Z" transform="translate(-117.74 -120.66)" fill="#93cebc"/><path d="M752.54,228.89h0a2.11,2.11,0,0,0,1.48-2.81l-6.18-14.36-4.73,1.53,6.17,14.36A2.67,2.67,0,0,0,752.54,228.89Z" transform="translate(-117.74 -120.66)" fill="#93cebc"/><path d="M745.34,231.22h0a2.12,2.12,0,0,0,1.49-2.82l-6.18-14.35-4.74,1.53,6.18,14.35A2.65,2.65,0,0,0,745.34,231.22Z" transform="translate(-117.74 -120.66)" fill="#93cebc"/><path d="M738.15,233.55h0a2.13,2.13,0,0,0,1.48-2.82l-6.18-14.35-4.73,1.53,6.18,14.35A2.66,2.66,0,0,0,738.15,233.55Z" transform="translate(-117.74 -120.66)" fill="#93cebc"/><path d="M731.31,235.85h0a2.11,2.11,0,0,0,1.42-2.84l-6.47-14.26-4.7,1.61L728,234.61A2.67,2.67,0,0,0,731.31,235.85Z" transform="translate(-117.74 -120.66)" fill="#93cebc"/><path d="M724.15,238.29h0a2.11,2.11,0,0,0,1.43-2.84l-6.47-14.26-4.71,1.6,6.47,14.26A2.67,2.67,0,0,0,724.15,238.29Z" transform="translate(-117.74 -120.66)" fill="#93cebc"/><path d="M717,240.73h0a2.11,2.11,0,0,0,1.43-2.84L712,223.63l-4.7,1.6,6.46,14.26A2.67,2.67,0,0,0,717,240.73Z" transform="translate(-117.74 -120.66)" fill="#93cebc"/><path d="M709.83,243.17h0a2.11,2.11,0,0,0,1.43-2.84l-6.47-14.26-4.7,1.6,6.47,14.26A2.66,2.66,0,0,0,709.83,243.17Z" transform="translate(-117.74 -120.66)" fill="#93cebc"/><path d="M702.88,245.55h0a2.1,2.1,0,0,0,1.39-2.85l-6.65-14.2-4.68,1.64,6.65,14.2A2.68,2.68,0,0,0,702.88,245.55Z" transform="translate(-117.74 -120.66)" fill="#93cebc"/><path d="M695.74,248.06h0a2.1,2.1,0,0,0,1.4-2.85L690.49,231l-4.68,1.64,6.64,14.2A2.68,2.68,0,0,0,695.74,248.06Z" transform="translate(-117.74 -120.66)" fill="#93cebc"/><path d="M688.61,250.56h0a2.1,2.1,0,0,0,1.39-2.85l-6.65-14.19-4.68,1.64,6.65,14.2A2.66,2.66,0,0,0,688.61,250.56Z" transform="translate(-117.74 -120.66)" fill="#93cebc"/><path d="M682.24,252.8h0a2.08,2.08,0,0,0,1.26-2.9L676.17,236l-4.6,1.81,7.33,13.95A2.69,2.69,0,0,0,682.24,252.8Z" transform="translate(-117.74 -120.66)" fill="#93cebc"/><path d="M675.46,255.4h0a2.08,2.08,0,0,0,1.2-2.92l-7.58-13.84-4.57,1.88,7.59,13.84A2.71,2.71,0,0,0,675.46,255.4Z" transform="translate(-117.74 -120.66)" fill="#93cebc"/><path d="M668.42,258.19h0a2.08,2.08,0,0,0,1.2-2.92L662,241.43l-4.57,1.88,7.58,13.84A2.72,2.72,0,0,0,668.42,258.19Z" transform="translate(-117.74 -120.66)" fill="#93cebc"/><path d="M661.38,260.87h0a2.06,2.06,0,0,0,1.19-2.91L655,244.13,650.4,246,658,259.84A2.71,2.71,0,0,0,661.38,260.87Z" transform="translate(-117.74 -120.66)" fill="#93cebc"/><path d="M654.5,263.73h0a2.06,2.06,0,0,0,1.17-2.92L648,247l-4.55,1.91,7.72,13.79A2.72,2.72,0,0,0,654.5,263.73Z" transform="translate(-117.74 -120.66)" fill="#93cebc"/><path d="M647.56,266.59h0a2.05,2.05,0,0,0,1.15-2.92l-7.78-13.76-4.54,1.92,7.79,13.76A2.71,2.71,0,0,0,647.56,266.59Z" transform="translate(-117.74 -120.66)" fill="#93cebc"/><path d="M641,269.6h0a2.06,2.06,0,0,0,1.08-3L634,253l-4.49,2,8.1,13.62A2.74,2.74,0,0,0,641,269.6Z" transform="translate(-117.74 -120.66)" fill="#93cebc"/><path d="M634,272.63h0a2.06,2.06,0,0,0,1.09-2.95L627,256.06l-4.5,2,8.11,13.61A2.72,2.72,0,0,0,634,272.63Z" transform="translate(-117.74 -120.66)" fill="#93cebc"/><path d="M627.34,275.69h0a2,2,0,0,0,1-3l-8.31-13.53-4.46,2.06,8.31,13.52A2.74,2.74,0,0,0,627.34,275.69Z" transform="translate(-117.74 -120.66)" fill="#93cebc"/><path d="M620.57,278.91h0a2.05,2.05,0,0,0,1-3l-8.41-13.48-4.45,2.08L617.14,278A2.76,2.76,0,0,0,620.57,278.91Z" transform="translate(-117.74 -120.66)" fill="#93cebc"/><path d="M613.72,282.08h0a2,2,0,0,0,1-3l-8.46-13.46-4.44,2.1,8.46,13.45A2.75,2.75,0,0,0,613.72,282.08Z" transform="translate(-117.74 -120.66)" fill="#93cebc"/><path d="M606.91,285.27h0a2,2,0,0,0,1-3l-8.54-13.41L594.93,271l8.55,13.42A2.74,2.74,0,0,0,606.91,285.27Z" transform="translate(-117.74 -120.66)" fill="#93cebc"/><path d="M598.47,289h0a2.08,2.08,0,0,0,1.25-2.9l-7.38-13.92L587.75,274,595.12,288A2.71,2.71,0,0,0,598.47,289Z" transform="translate(-117.74 -120.66)" fill="#93cebc"/><path d="M591.46,291.75h0a2.06,2.06,0,0,0,1.23-2.9L585.25,275l-4.58,1.84,7.43,13.9A2.7,2.7,0,0,0,591.46,291.75Z" transform="translate(-117.74 -120.66)" fill="#93cebc"/><path d="M584.83,294.64h0a2.07,2.07,0,0,0,1.16-2.93l-7.76-13.77-4.55,1.92,7.77,13.77A2.71,2.71,0,0,0,584.83,294.64Z" transform="translate(-117.74 -120.66)" fill="#93cebc"/><path d="M577.79,297.53h0a2.06,2.06,0,0,0,1.16-2.92l-7.76-13.77-4.54,1.92,7.76,13.77A2.72,2.72,0,0,0,577.79,297.53Z" transform="translate(-117.74 -120.66)" fill="#93cebc"/><path d="M571,300.47h0a2.07,2.07,0,0,0,1.12-2.94l-8-13.68-4.51,2,8,13.68A2.73,2.73,0,0,0,571,300.47Z" transform="translate(-117.74 -120.66)" fill="#93cebc"/><path d="M564.17,303.56h0a2.07,2.07,0,0,0,1.1-2.95L557.19,287l-4.49,2,8.07,13.63A2.73,2.73,0,0,0,564.17,303.56Z" transform="translate(-117.74 -120.66)" fill="#93cebc"/><path d="M557.24,306.6h0a2.06,2.06,0,0,0,1.09-3L550.2,290l-4.49,2,8.13,13.61A2.73,2.73,0,0,0,557.24,306.6Z" transform="translate(-117.74 -120.66)" fill="#93cebc"/><path d="M550.36,309.66h0a2.05,2.05,0,0,0,1.07-3l-8.21-13.57-4.48,2L547,308.74A2.73,2.73,0,0,0,550.36,309.66Z" transform="translate(-117.74 -120.66)" fill="#93cebc"/><path d="M544.14,313h0a2,2,0,0,0,.89-3l-9-13.19L531.69,299l9,13.2A2.76,2.76,0,0,0,544.14,313Z" transform="translate(-117.74 -120.66)" fill="#93cebc"/><path d="M537.55,316.37h0a2,2,0,0,0,.89-3l-9-13.19-4.35,2.22,9,13.2A2.76,2.76,0,0,0,537.55,316.37Z" transform="translate(-117.74 -120.66)" fill="#93cebc"/><path d="M531,319.74h0a2,2,0,0,0,.9-3l-9-13.19-4.35,2.22,9,13.19A2.75,2.75,0,0,0,531,319.74Z" transform="translate(-117.74 -120.66)" fill="#93cebc"/><path d="M524.36,323.11h0a2,2,0,0,0,.89-3l-9-13.19-4.35,2.22,9,13.19A2.76,2.76,0,0,0,524.36,323.11Z" transform="translate(-117.74 -120.66)" fill="#93cebc"/><path d="M518.09,326.35h0a2,2,0,0,0,.83-3l-9.25-13.06-4.31,2.29,9.26,13.06A2.76,2.76,0,0,0,518.09,326.35Z" transform="translate(-117.74 -120.66)" fill="#93cebc"/><path d="M511.57,329.82h0a2,2,0,0,0,.83-3l-9.25-13.06L498.84,316l9.25,13.06A2.77,2.77,0,0,0,511.57,329.82Z" transform="translate(-117.74 -120.66)" fill="#93cebc"/><path d="M505,333.29h0a2,2,0,0,0,.83-3l-9.25-13.06-4.31,2.29,9.26,13.06A2.76,2.76,0,0,0,505,333.29Z" transform="translate(-117.74 -120.66)" fill="#93cebc"/><path d="M498.52,336.76h0a2,2,0,0,0,.83-3l-9.25-13.06L485.79,323,495,336A2.77,2.77,0,0,0,498.52,336.76Z" transform="translate(-117.74 -120.66)" fill="#93cebc"/><path d="M492.18,340.13h0a2,2,0,0,0,.79-3l-9.41-13-4.28,2.33,9.41,13A2.77,2.77,0,0,0,492.18,340.13Z" transform="translate(-117.74 -120.66)" fill="#93cebc"/><path d="M485.7,343.66h0a2,2,0,0,0,.79-3l-9.42-13L472.8,330l9.41,13A2.77,2.77,0,0,0,485.7,343.66Z" transform="translate(-117.74 -120.66)" fill="#93cebc"/><path d="M479.21,347.2h0a2,2,0,0,0,.8-3l-9.42-13-4.28,2.33,9.42,13A2.77,2.77,0,0,0,479.21,347.2Z" transform="translate(-117.74 -120.66)" fill="#93cebc"/><path d="M472.73,350.73h0a2,2,0,0,0,.8-3l-9.42-13-4.28,2.33,9.42,13A2.77,2.77,0,0,0,472.73,350.73Z" transform="translate(-117.74 -120.66)" fill="#93cebc"/><path d="M467.18,353.87h0a2,2,0,0,0,.61-3.05l-10.17-12.54-4.14,2.52,10.18,12.54A2.8,2.8,0,0,0,467.18,353.87Z" transform="translate(-117.74 -120.66)" fill="#93cebc"/><path d="M460.89,357.69h0a2,2,0,0,0,.62-3l-10.17-12.54-4.14,2.52,10.17,12.53A2.78,2.78,0,0,0,460.89,357.69Z" transform="translate(-117.74 -120.66)" fill="#93cebc"/><path d="M454.61,361.52h0a2,2,0,0,0,.62-3l-10.17-12.53-4.14,2.52L451.09,361A2.78,2.78,0,0,0,454.61,361.52Z" transform="translate(-117.74 -120.66)" fill="#93cebc"/><path d="M448.33,365.35h0a2,2,0,0,0,.62-3.05l-10.17-12.53-4.14,2.51,10.17,12.54A2.79,2.79,0,0,0,448.33,365.35Z" transform="translate(-117.74 -120.66)" fill="#93cebc"/><path d="M442.39,369.08h0a2,2,0,0,0,.55-3.06l-10.42-12.38-4.09,2.58,10.43,12.38A2.8,2.8,0,0,0,442.39,369.08Z" transform="translate(-117.74 -120.66)" fill="#93cebc"/><path d="M436.17,373h0a2,2,0,0,0,.56-3.05L426.3,357.57l-4.08,2.58,10.42,12.38A2.79,2.79,0,0,0,436.17,373Z" transform="translate(-117.74 -120.66)" fill="#93cebc"/><path d="M430,376.93h0a2,2,0,0,0,.55-3.06L420.09,361.5,416,364.07l10.42,12.38A2.79,2.79,0,0,0,430,376.93Z" transform="translate(-117.74 -120.66)" fill="#93cebc"/><path d="M423.75,380.86h0a2,2,0,0,0,.55-3.06l-10.42-12.38L409.79,368l10.43,12.38A2.79,2.79,0,0,0,423.75,380.86Z" transform="translate(-117.74 -120.66)" fill="#93cebc"/><path d="M417.72,384.68h0a2,2,0,0,0,.51-3.06l-10.58-12.28-4,2.62,10.58,12.28A2.78,2.78,0,0,0,417.72,384.68Z" transform="translate(-117.74 -120.66)" fill="#93cebc"/><path d="M411.55,388.67h0a2,2,0,0,0,.51-3.06l-10.58-12.28L397.43,376,408,388.23A2.78,2.78,0,0,0,411.55,388.67Z" transform="translate(-117.74 -120.66)" fill="#93cebc"/><path d="M405.37,392.66h0a2,2,0,0,0,.52-3.06l-10.58-12.28-4.05,2.62,10.58,12.28A2.77,2.77,0,0,0,405.37,392.66Z" transform="translate(-117.74 -120.66)" fill="#93cebc"/><path d="M399.87,396.22h0a2,2,0,0,0,.37-3.07l-11.16-11.89L385.15,384l11.17,11.89A2.79,2.79,0,0,0,399.87,396.22Z" transform="translate(-117.74 -120.66)" fill="#93cebc"/><path d="M394.07,400.22h0a2,2,0,0,0,.31-3.08L383,385.41l-3.87,2.81L390.51,400A2.79,2.79,0,0,0,394.07,400.22Z" transform="translate(-117.74 -120.66)" fill="#93cebc"/><path d="M388.07,404.46h0a2,2,0,0,0,.31-3.08L377,389.65l-3.87,2.81,11.38,11.73A2.8,2.8,0,0,0,388.07,404.46Z" transform="translate(-117.74 -120.66)" fill="#93cebc"/><path d="M382,408.6h0a2,2,0,0,0,.3-3.08l-11.4-11.71-3.86,2.82,11.4,11.71A2.81,2.81,0,0,0,382,408.6Z" transform="translate(-117.74 -120.66)" fill="#93cebc"/><path d="M376.22,412.87h0a2,2,0,0,0,.28-3.08L365,398.14,361.16,401l11.5,11.64A2.79,2.79,0,0,0,376.22,412.87Z" transform="translate(-117.74 -120.66)" fill="#93cebc"/><path d="M370.34,417.16h0a2,2,0,0,0,.26-3.08l-11.54-11.61-3.83,2.86,11.54,11.6A2.81,2.81,0,0,0,370.34,417.16Z" transform="translate(-117.74 -120.66)" fill="#93cebc"/><path d="M364.87,421.51h0a2,2,0,0,0,.19-3.09L353.24,407l-3.76,2.92,11.82,11.4A2.81,2.81,0,0,0,364.87,421.51Z" transform="translate(-117.74 -120.66)" fill="#93cebc"/><path d="M359,426h0a2,2,0,0,0,.19-3.09l-11.81-11.4-3.76,2.93,11.81,11.4A2.81,2.81,0,0,0,359,426Z" transform="translate(-117.74 -120.66)" fill="#93cebc"/><path d="M353.43,430.39h0a2,2,0,0,0,.14-3.09l-12-11.27-3.72,3,12,11.26A2.81,2.81,0,0,0,353.43,430.39Z" transform="translate(-117.74 -120.66)" fill="#93cebc"/><path id="FF3" d="M347.82,435h0a2,2,0,0,0,.12-3.1L335.87,420.7l-3.69,3,12.07,11.2A2.82,2.82,0,0,0,347.82,435Z" transform="translate(-117.74 -120.66)" fill="#93cebc"/><path id="FF2" d="M342.12,439.55h0a2,2,0,0,0,.11-3.09L330.11,425.3l-3.68,3,12.12,11.16A2.8,2.8,0,0,0,342.12,439.55Z" transform="translate(-117.74 -120.66)" fill="#93cebc"/><path id="FF1" d="M336.47,444.13h0a2,2,0,0,0,.09-3.09l-12.19-11.11-3.66,3,12.18,11.1A2.82,2.82,0,0,0,336.47,444.13Z" transform="translate(-117.74 -120.66)" fill="#93cebc"/></g><g id="alfa"><rect id="A_1" data-name="A 1" x="1093.61" y="364.46" width="17.56" height="4.06" fill="#93cebc"/><rect id="A_2" data-name="A 2" x="1093.61" y="358.88" width="17.56" height="4.06" fill="#93cebc"/><rect id="A_3" data-name="A 3" x="1093.61" y="353.29" width="17.56" height="4.06" fill="#93cebc"/><rect id="A_4" data-name="A 4" x="1093.61" y="347.7" width="17.56" height="4.06" fill="#93cebc"/><rect id="A_5" data-name="A 5" x="1093.61" y="342.11" width="17.56" height="4.06" fill="#93cebc"/><rect id="A_6" data-name="A 6" x="1093.61" y="336.52" width="17.56" height="4.06" fill="#93cebc"/><rect id="A_7" data-name="A 7" x="1093.61" y="330.93" width="17.56" height="4.06" fill="#93cebc"/><rect id="A_8" data-name="A 8" x="1093.61" y="325.35" width="17.56" height="4.06" fill="#93cebc"/><rect id="A_9" data-name="A 9" x="1093.61" y="319.76" width="17.56" height="4.06" fill="#93cebc"/><rect id="A_10" data-name="A 10" x="1093.61" y="314.17" width="17.56" height="4.06" fill="#93cebc"/><rect id="A_11" data-name="A 11" x="1093.61" y="308.58" width="17.56" height="4.06" fill="#93cebc"/><rect id="A_12" data-name="A 12" x="1093.61" y="302.99" width="17.56" height="4.06" fill="#93cebc"/><rect id="A_13" data-name="A 13" x="1093.61" y="297.4" width="17.56" height="4.06" fill="#93cebc"/><rect id="A_14" data-name="A 14" x="1093.61" y="291.54" width="17.56" height="4.06" fill="#93cebc"/><rect id="A_15" data-name="A 15" x="1093.61" y="285.25" width="17.56" height="4.06" fill="#93cebc"/><rect id="A_16" data-name="A 16" x="1093.61" y="279.67" width="17.56" height="4.06" fill="#93cebc"/><rect id="A_17" data-name="A 17" x="1093.61" y="274.08" width="17.56" height="4.06" fill="#93cebc"/><rect id="A_18" data-name="A 18" x="1093.61" y="268.49" width="17.56" height="4.06" fill="#93cebc"/><rect id="A_19" data-name="A 19" x="1093.61" y="262.9" width="17.56" height="4.06" fill="#93cebc"/><rect id="A_20" data-name="A 20" x="1093.61" y="257.31" width="17.56" height="4.06" fill="#93cebc"/><rect id="A_21" data-name="A 21" x="1093.61" y="251.72" width="17.56" height="4.06" fill="#93cebc"/><rect id="A_22" data-name="A 22" x="1093.61" y="246.14" width="17.56" height="4.06" fill="#93cebc"/><rect id="A_23" data-name="A 23" x="1093.61" y="240.55" width="17.56" height="4.06" fill="#93cebc"/><rect id="A_24" data-name="A 24" x="1093.61" y="234.96" width="17.56" height="4.06" fill="#93cebc"/><rect id="A_25" data-name="A 25" x="1093.61" y="229.37" width="17.56" height="4.06" fill="#93cebc"/><rect id="A_26" data-name="A 26" x="1093.61" y="223.78" width="17.56" height="4.06" fill="#93cebc"/><rect id="A_27" data-name="A 27" x="1093.61" y="218.19" width="17.56" height="4.06" fill="#93cebc"/></g><g id="bravo"><rect id="B_1" data-name="B 1" x="1062.8" y="416.07" width="17.56" height="4.1" fill="#93cebc"/><rect id="B_2" data-name="B 2" x="1062.8" y="410.41" width="17.56" height="4.1" fill="#93cebc"/><rect id="B_3" data-name="B 3" x="1062.8" y="404.76" width="17.56" height="4.1" fill="#93cebc"/><rect id="B_4" data-name="B 4" x="1062.8" y="399.11" width="17.56" height="4.1" fill="#93cebc"/><rect id="B_5" data-name="B 5" x="1062.8" y="393.46" width="17.56" height="4.1" fill="#93cebc"/><rect id="B_6" data-name="B 6" x="1062.8" y="387.8" width="17.56" height="4.1" fill="#93cebc"/><rect id="B_7" data-name="B 7" x="1062.8" y="382.15" width="17.56" height="4.1" fill="#93cebc"/><rect id="B_8" data-name="B 8" x="1062.8" y="376.5" width="17.56" height="4.1" fill="#93cebc"/><rect id="B_9" data-name="B 9" x="1062.8" y="370.84" width="17.56" height="4.1" fill="#93cebc"/><rect id="B_10" data-name="B 10" x="1062.8" y="365.19" width="17.56" height="4.1" fill="#93cebc"/><rect id="B_11" data-name="B 11" x="1062.8" y="359.54" width="17.56" height="4.1" fill="#93cebc"/><rect id="B_12" data-name="B 12" x="1062.8" y="353.89" width="17.56" height="4.1" fill="#93cebc"/><rect id="B_13" data-name="B 13" x="1062.8" y="348.23" width="17.56" height="4.1" fill="#93cebc"/><rect id="B_14" data-name="B 14" x="1062.8" y="342.58" width="17.56" height="4.1" fill="#93cebc"/><rect id="B_15" data-name="B 15" x="1062.8" y="336.93" width="17.56" height="4.1" fill="#93cebc"/><rect id="B_16" data-name="B 16" x="1062.8" y="331.27" width="17.56" height="4.1" fill="#93cebc"/><rect id="B_17" data-name="B 17" x="1062.8" y="325.62" width="17.56" height="4.1" fill="#93cebc"/><rect id="B_18" data-name="B 18" x="1062.8" y="319.97" width="17.56" height="4.1" fill="#93cebc"/><rect id="B_19" data-name="B 19" x="1062.8" y="314.31" width="17.56" height="4.1" fill="#93cebc"/><rect id="B_20" data-name="B 20" x="1062.8" y="308.66" width="17.56" height="4.1" fill="#93cebc"/><rect id="B_21" data-name="B 21" x="1062.8" y="303.01" width="17.56" height="4.1" fill="#93cebc"/><rect id="B_22" data-name="B 22" x="1062.8" y="297.36" width="17.56" height="4.1" fill="#93cebc"/><rect id="B_23" data-name="B 23" x="1062.8" y="291.7" width="17.56" height="4.1" fill="#93cebc"/><rect id="B_24" data-name="B 24" x="1062.8" y="286.05" width="17.56" height="4.1" fill="#93cebc"/><rect id="B_25" data-name="B 25" x="1062.8" y="280.4" width="17.56" height="4.1" fill="#93cebc"/><rect id="B_26" data-name="B 26" x="1062.8" y="274.74" width="17.56" height="4.1" fill="#93cebc"/><rect id="B_27" data-name="B 27" x="1062.8" y="269.09" width="17.56" height="4.1" fill="#93cebc"/><rect id="B_28" data-name="B 28" x="1062.8" y="263.44" width="17.56" height="4.1" fill="#93cebc"/><rect id="B_29" data-name="B 29" x="1062.8" y="257.79" width="17.56" height="4.1" fill="#93cebc"/><rect id="B_30" data-name="B 30" x="1062.8" y="252.13" width="17.56" height="4.1" fill="#93cebc"/><rect id="B_31" data-name="B 31" x="1062.8" y="246.48" width="17.56" height="4.1" fill="#93cebc"/><rect id="B_32" data-name="B 32" x="1062.8" y="240.83" width="17.56" height="4.1" fill="#93cebc"/><rect id="B_33" data-name="B 33" x="1062.8" y="235.17" width="17.56" height="4.1" fill="#93cebc"/><rect id="B_34" data-name="B 34" x="1062.8" y="229.52" width="17.56" height="4.1" fill="#93cebc"/><rect id="B_35" data-name="B 35" x="1062.8" y="223.87" width="17.56" height="4.1" fill="#93cebc"/><rect id="B_36" data-name="B 36" x="1062.8" y="218.22" width="17.56" height="4.1" fill="#93cebc"/></g><g id="charlie"><rect id="C_1" data-name="C 1" x="1012.58" y="414.65" width="17.56" height="5.52" fill="#93cebc"/><rect id="C_2" data-name="C 2" x="1012.58" y="407.05" width="17.56" height="5.52" fill="#93cebc"/><rect id="C_3" data-name="C 3" x="1012.58" y="399.44" width="17.56" height="5.52" fill="#93cebc"/><rect id="C_4" data-name="C 4" x="1012.58" y="391.84" width="17.56" height="5.52" fill="#93cebc"/><rect id="C_5" data-name="C 5" x="1012.58" y="384.23" width="17.56" height="5.52" fill="#93cebc"/><rect id="C_6" data-name="C 6" x="1012.58" y="376.63" width="17.56" height="5.52" fill="#93cebc"/><rect id="C_7" data-name="C 7" x="1012.58" y="369.03" width="17.56" height="5.52" fill="#93cebc"/><rect id="C_8" data-name="C 8" x="1012.58" y="361.42" width="17.56" height="5.52" fill="#93cebc"/><rect id="C_9" data-name="C 9" x="1012.58" y="353.82" width="17.56" height="5.52" fill="#93cebc"/><rect id="C_10" data-name="C 10" x="1012.58" y="346.21" width="17.56" height="5.52" fill="#93cebc"/><rect id="C_11" data-name="C 11" x="1012.58" y="338.61" width="17.56" height="5.52" fill="#93cebc"/><rect id="C_12" data-name="C 12" x="1012.58" y="331" width="17.56" height="5.52" fill="#93cebc"/><rect id="C_13" data-name="C 13" x="1012.58" y="323.4" width="17.56" height="5.52" fill="#93cebc"/><rect id="C_14" data-name="C 14" x="1012.58" y="315.8" width="17.56" height="5.52" fill="#93cebc"/><rect id="C_15" data-name="C 15" x="1012.58" y="308.19" width="17.56" height="5.52" fill="#93cebc"/><rect id="C_16" data-name="C 16" x="1012.58" y="300.59" width="17.56" height="5.52" fill="#93cebc"/><rect id="C_17" data-name="C 17" x="1012.58" y="292.98" width="17.56" height="5.52" fill="#93cebc"/><rect id="C_18" data-name="C 18" x="1012.58" y="285.38" width="17.56" height="5.52" fill="#93cebc"/><rect id="C_19" data-name="C 19" x="1012.58" y="277.78" width="17.56" height="5.52" fill="#93cebc"/><rect id="C_20" data-name="C 20" x="1012.58" y="270.17" width="17.56" height="5.52" fill="#93cebc"/><rect id="C_21" data-name="C 21" x="1012.58" y="262.57" width="17.56" height="5.52" fill="#93cebc"/><rect id="C_22" data-name="C 22" x="1012.58" y="254.96" width="17.56" height="5.52" fill="#93cebc"/><rect id="C_23" data-name="C 23" x="1012.58" y="247.36" width="17.56" height="5.52" fill="#93cebc"/><rect id="C_24" data-name="C 24" x="1012.58" y="239.75" width="17.56" height="5.52" fill="#93cebc"/><rect id="C_25" data-name="C 25" x="1012.58" y="232.15" width="17.56" height="5.52" fill="#93cebc"/><rect id="C_26" data-name="C 26" x="1012.58" y="224.55" width="17.56" height="5.52" fill="#93cebc"/><rect id="C_27" data-name="C 27" x="1012.58" y="216.94" width="17.56" height="5.52" fill="#93cebc"/><rect id="C_28" data-name="C 28" x="1012.58" y="209.34" width="17.56" height="5.52" fill="#93cebc"/></g><g id="delta"><rect id="D_30" data-name="D 30" x="980.08" y="222.68" width="17.56" height="4.84" fill="#93cebc"/><rect id="D_29" data-name="D 29" x="980.08" y="229.35" width="17.56" height="4.84" fill="#93cebc"/><rect id="D_28" data-name="D 28" x="980.08" y="236.02" width="17.56" height="4.84" fill="#93cebc"/><rect id="D_18" data-name="D 18" x="980.08" y="302.72" width="17.56" height="4.84" fill="#93cebc"/><rect id="D_17" data-name="D 17" x="980.08" y="309.39" width="17.56" height="4.84" fill="#93cebc"/><rect id="D_16" data-name="D 16" x="980.08" y="316.06" width="17.56" height="4.84" fill="#93cebc"/><rect id="D_15" data-name="D 15" x="980.08" y="322.73" width="17.56" height="4.84" fill="#93cebc"/><rect id="D_14" data-name="D 14" x="980.08" y="329.4" width="17.56" height="4.84" fill="#93cebc"/><rect id="D_13" data-name="D 13" x="980.08" y="336.07" width="17.56" height="4.84" fill="#93cebc"/><rect id="D_12" data-name="D 12" x="980.08" y="342.73" width="17.56" height="4.84" fill="#93cebc"/><rect id="D_11" data-name="D 11" x="980.08" y="349.4" width="17.56" height="4.84" fill="#93cebc"/><rect id="D_23" data-name="D 23" x="980.08" y="269.37" width="17.56" height="4.84" fill="#93cebc"/><rect id="D_22" data-name="D 22" x="980.08" y="276.04" width="17.56" height="4.84" fill="#93cebc"/><rect id="D_21" data-name="D 21" x="980.08" y="282.71" width="17.56" height="4.84" fill="#93cebc"/><rect id="D_20" data-name="D 20" x="980.08" y="289.38" width="17.56" height="4.84" fill="#93cebc"/><rect id="D_19" data-name="D 19" x="980.08" y="296.05" width="17.56" height="4.84" fill="#93cebc"/><rect id="D_27" data-name="D 27" x="980.08" y="242.69" width="17.56" height="4.84" fill="#93cebc"/><rect id="D_26" data-name="D 26" x="980.08" y="249.36" width="17.56" height="4.84" fill="#93cebc"/><rect id="D_25" data-name="D 25" x="980.08" y="256.03" width="17.56" height="4.84" fill="#93cebc"/><rect id="D_24" data-name="D 24" x="980.08" y="262.7" width="17.56" height="4.84" fill="#93cebc"/><rect id="D_8" data-name="D 8" x="980.08" y="369.41" width="17.56" height="4.84" fill="#93cebc"/><rect id="D_7" data-name="D 7" x="980.08" y="376.08" width="17.56" height="4.84" fill="#93cebc"/><rect id="D_6" data-name="D 6" x="980.08" y="382.75" width="17.56" height="4.84" fill="#93cebc"/><rect id="D_5" data-name="D 5" x="980.08" y="389.42" width="17.56" height="4.84" fill="#93cebc"/><rect id="D_4" data-name="D 4" x="980.08" y="396.09" width="17.56" height="4.84" fill="#93cebc"/><rect id="D_3" data-name="D 3" x="980.08" y="402.76" width="17.56" height="4.84" fill="#93cebc"/><rect id="D_2" data-name="D 2" x="980.08" y="409.43" width="17.56" height="4.84" fill="#93cebc"/><rect id="D_1" data-name="D 1" x="980.08" y="416.1" width="17.56" height="4.84" fill="#93cebc"/><rect id="D_10" data-name="D 10" x="980.08" y="356.07" width="17.56" height="4.84" fill="#93cebc"/><rect id="D_9" data-name="D 9" x="980.08" y="362.74" width="17.56" height="4.84" fill="#93cebc"/><rect id="D_31" data-name="D 31" x="980.08" y="215.77" width="17.56" height="4.84" fill="#93cebc"/><rect id="D_32" data-name="D 32" x="980.08" y="209.1" width="17.56" height="4.84" fill="#93cebc"/></g><g id="echo"><rect id="E_1" data-name="E 1" x="937.89" y="417.23" width="17.56" height="4.03" fill="#93cebc"/><rect id="E_2" data-name="E 2" x="937.89" y="411.69" width="17.56" height="4.03" fill="#93cebc"/><rect id="E_3" data-name="E 3" x="937.89" y="406.14" width="17.56" height="4.03" fill="#93cebc"/><rect id="E_4" data-name="E 4" x="937.89" y="400.59" width="17.56" height="4.03" fill="#93cebc"/><rect id="E_5" data-name="E 5" x="937.89" y="395.04" width="17.56" height="4.03" fill="#93cebc"/><rect id="E_6" data-name="E 6" x="937.89" y="389.5" width="17.56" height="4.03" fill="#93cebc"/><rect id="E_7" data-name="E 7" x="937.89" y="383.95" width="17.56" height="4.03" fill="#93cebc"/><rect id="E_8" data-name="E 8" x="937.89" y="378.4" width="17.56" height="4.03" fill="#93cebc"/><rect id="E_9" data-name="E 9" x="937.89" y="372.86" width="17.56" height="4.03" fill="#93cebc"/><rect id="E_10" data-name="E 10" x="937.89" y="367.31" width="17.56" height="4.03" fill="#93cebc"/><rect id="E_11" data-name="E 11" x="937.89" y="361.76" width="17.56" height="4.03" fill="#93cebc"/><rect id="E_12" data-name="E 12" x="937.89" y="356.21" width="17.56" height="4.03" fill="#93cebc"/><rect id="E_13" data-name="E 13" x="937.89" y="350.67" width="17.56" height="4.03" fill="#93cebc"/><rect id="E_14" data-name="E 14" x="937.89" y="345.12" width="17.56" height="4.03" fill="#93cebc"/><rect id="E_15" data-name="E 15" x="937.89" y="339.57" width="17.56" height="4.03" fill="#93cebc"/><rect id="E_16" data-name="E 16" x="937.89" y="334.03" width="17.56" height="4.03" fill="#93cebc"/><rect id="E_17" data-name="E 17" x="937.89" y="328.48" width="17.56" height="4.03" fill="#93cebc"/><rect id="E_18" data-name="E 18" x="937.89" y="322.93" width="17.56" height="4.03" fill="#93cebc"/><rect id="E_19" data-name="E 19" x="937.89" y="317.39" width="17.56" height="4.03" fill="#93cebc"/><rect id="E_20" data-name="E 20" x="937.89" y="311.84" width="17.56" height="4.03" fill="#93cebc"/><rect id="E_21" data-name="E 21" x="937.89" y="306.29" width="17.56" height="4.03" fill="#93cebc"/><rect id="E_22" data-name="E 22" x="937.89" y="300.74" width="17.56" height="4.03" fill="#93cebc"/><rect id="E_23" data-name="E 23" x="937.89" y="295.2" width="17.56" height="4.03" fill="#93cebc"/><rect id="E_24" data-name="E 24" x="937.89" y="289.65" width="17.56" height="4.03" fill="#93cebc"/><rect id="E_25" data-name="E 25" x="937.89" y="284.1" width="17.56" height="4.03" fill="#93cebc"/><rect id="E_26" data-name="E 26" x="937.89" y="278.56" width="17.56" height="4.03" fill="#93cebc"/><rect id="E_27" data-name="E 27" x="937.89" y="273.01" width="17.56" height="4.03" fill="#93cebc"/><rect id="E_28" data-name="E 28" x="937.89" y="267.46" width="17.56" height="4.03" fill="#93cebc"/><rect id="E_29" data-name="E 29" x="937.89" y="261.91" width="17.56" height="4.03" fill="#93cebc"/><rect id="E_30" data-name="E 30" x="937.89" y="256.37" width="17.56" height="4.03" fill="#93cebc"/><rect id="E_31" data-name="E 31" x="937.89" y="250.82" width="17.56" height="4.03" fill="#93cebc"/><rect id="E_32" data-name="E 32" x="937.89" y="245.27" width="17.56" height="4.03" fill="#93cebc"/><rect id="E_33" data-name="E 33" x="937.89" y="239.73" width="17.56" height="4.03" fill="#93cebc"/><rect id="E_34" data-name="E 34" x="937.89" y="234.18" width="17.56" height="4.03" fill="#93cebc"/><rect id="E_35" data-name="E 35" x="937.89" y="228.63" width="17.56" height="4.03" fill="#93cebc"/><rect id="E_36" data-name="E 36" x="937.89" y="222.95" width="17.56" height="4.03" fill="#93cebc"/><rect id="E_37" data-name="E 37" x="937.89" y="217.33" width="17.56" height="4.03" fill="#93cebc"/><rect id="E_38" data-name="E 38" x="937.89" y="211.78" width="17.56" height="4.03" fill="#93cebc"/><rect id="E_39" data-name="E 39" x="937.89" y="206.17" width="17.56" height="4.03" fill="#93cebc"/></g><g id="foxtrot"><rect id="_1" data-name="1" x="906.31" y="438.84" width="17.56" height="4.09" fill="#93cebc"/><rect id="_2" data-name="2" x="906.31" y="433.21" width="17.56" height="4.09" fill="#93cebc"/><rect id="_3" data-name="3" x="906.31" y="427.57" width="17.56" height="4.09" fill="#93cebc"/><rect id="_4" data-name="4" x="906.31" y="421.94" width="17.56" height="4.09" fill="#93cebc"/><rect id="_5" data-name="5" x="906.31" y="416.31" width="17.56" height="4.09" fill="#93cebc"/><rect id="_6" data-name="6" x="906.31" y="410.67" width="17.56" height="4.09" fill="#93cebc"/><rect id="_7" data-name="7" x="906.31" y="405.04" width="17.56" height="4.09" fill="#93cebc"/><rect id="_8" data-name="8" x="906.31" y="399.41" width="17.56" height="4.09" fill="#93cebc"/><rect id="_9" data-name="9" x="906.31" y="393.77" width="17.56" height="4.09" fill="#93cebc"/><rect id="_10" data-name="10" x="906.31" y="388.14" width="17.56" height="4.09" fill="#93cebc"/><rect id="_11" data-name="11" x="906.31" y="382.51" width="17.56" height="4.09" fill="#93cebc"/><rect id="_12" data-name="12" x="906.31" y="376.87" width="17.56" height="4.09" fill="#93cebc"/><rect id="_13" data-name="13" x="906.31" y="371.24" width="17.56" height="4.09" fill="#93cebc"/><rect id="_14" data-name="14" x="906.31" y="365.61" width="17.56" height="4.09" fill="#93cebc"/><rect id="_15" data-name="15" x="906.31" y="359.97" width="17.56" height="4.09" fill="#93cebc"/><rect id="_16" data-name="16" x="906.31" y="354.34" width="17.56" height="4.09" fill="#93cebc"/><rect id="_17" data-name="17" x="906.31" y="348.71" width="17.56" height="4.09" fill="#93cebc"/><rect id="_18" data-name="18" x="906.31" y="343.08" width="17.56" height="4.09" fill="#93cebc"/><rect id="_19" data-name="19" x="906.31" y="337.44" width="17.56" height="4.09" fill="#93cebc"/><rect id="_20" data-name="20" x="906.31" y="331.81" width="17.56" height="4.09" fill="#93cebc"/><rect id="_21" data-name="21" x="906.31" y="326.18" width="17.56" height="4.09" fill="#93cebc"/><rect id="_22" data-name="22" x="906.31" y="320.54" width="17.56" height="4.09" fill="#93cebc"/><rect id="_23" data-name="23" x="906.31" y="314.91" width="17.56" height="4.09" fill="#93cebc"/><rect id="_24" data-name="24" x="906.31" y="309.28" width="17.56" height="4.09" fill="#93cebc"/><rect id="_25" data-name="25" x="906.31" y="303.64" width="17.56" height="4.09" fill="#93cebc"/><rect id="_26" data-name="26" x="906.31" y="298.01" width="17.56" height="4.09" fill="#93cebc"/><rect id="_27" data-name="27" x="906.31" y="292.38" width="17.56" height="4.09" fill="#93cebc"/><rect id="_28" data-name="28" x="906.31" y="286.74" width="17.56" height="4.09" fill="#93cebc"/><rect id="_29" data-name="29" x="906.31" y="281.11" width="17.56" height="4.09" fill="#93cebc"/><rect id="_30" data-name="30" x="906.31" y="275.48" width="17.56" height="4.09" fill="#93cebc"/><rect id="_31" data-name="31" x="906.31" y="269.84" width="17.56" height="4.09" fill="#93cebc"/><rect id="_32" data-name="32" x="906.31" y="264.21" width="17.56" height="4.09" fill="#93cebc"/><rect id="_33" data-name="33" x="906.31" y="258.58" width="17.56" height="4.09" fill="#93cebc"/><rect id="_34" data-name="34" x="906.31" y="252.95" width="17.56" height="4.09" fill="#93cebc"/><rect id="_35" data-name="35" x="906.31" y="247.31" width="17.56" height="4.09" fill="#93cebc"/><rect id="_36" data-name="36" x="906.31" y="241.54" width="17.56" height="4.09" fill="#93cebc"/><rect id="_37" data-name="37" x="906.31" y="235.83" width="17.56" height="4.09" fill="#93cebc"/><rect id="_38" data-name="38" x="906.31" y="230.2" width="17.56" height="4.09" fill="#93cebc"/><rect id="_39" data-name="39" x="906.31" y="224.5" width="17.56" height="4.09" fill="#93cebc"/><rect id="_40" data-name="40" x="906.31" y="218.72" width="17.56" height="4.09" fill="#93cebc"/><rect id="_41" data-name="41" x="906.31" y="212.58" width="17.56" height="4.09" fill="#93cebc"/><rect id="_42" data-name="42" x="906.31" y="206.45" width="17.56" height="4.09" fill="#93cebc"/></g><g id="golf"><rect id="_1-2" data-name="1" x="874.46" y="439.57" width="17.56" height="4.02" fill="#93cebc"/><rect id="_2-2" data-name="2" x="874.46" y="434.03" width="17.56" height="4.02" fill="#93cebc"/><rect id="_3-2" data-name="3" x="874.46" y="428.49" width="17.56" height="4.02" fill="#93cebc"/><rect id="_4-2" data-name="4" x="874.46" y="422.95" width="17.56" height="4.02" fill="#93cebc"/><rect id="_5-2" data-name="5" x="874.46" y="417.41" width="17.56" height="4.02" fill="#93cebc"/><rect id="_6-2" data-name="6" x="874.46" y="411.87" width="17.56" height="4.02" fill="#93cebc"/><rect id="_7-2" data-name="7" x="874.46" y="406.33" width="17.56" height="4.02" fill="#93cebc"/><rect id="_8-2" data-name="8" x="874.46" y="400.79" width="17.56" height="4.02" fill="#93cebc"/><rect id="_9-2" data-name="9" x="874.46" y="395.25" width="17.56" height="4.02" fill="#93cebc"/><rect id="_10-2" data-name="10" x="874.46" y="389.7" width="17.56" height="4.02" fill="#93cebc"/><rect id="_11-2" data-name="11" x="874.46" y="384.16" width="17.56" height="4.02" fill="#93cebc"/><rect id="_12-2" data-name="12" x="874.46" y="378.62" width="17.56" height="4.02" fill="#93cebc"/><rect id="_13-2" data-name="13" x="874.46" y="373.08" width="17.56" height="4.02" fill="#93cebc"/><rect id="_14-2" data-name="14" x="874.46" y="367.54" width="17.56" height="4.02" fill="#93cebc"/><rect id="_15-2" data-name="15" x="874.46" y="362" width="17.56" height="4.02" fill="#93cebc"/><rect id="_16-2" data-name="16" x="874.46" y="356.46" width="17.56" height="4.02" fill="#93cebc"/><rect id="_17-2" data-name="17" x="874.46" y="350.92" width="17.56" height="4.02" fill="#93cebc"/><rect id="_18-2" data-name="18" x="874.46" y="345.38" width="17.56" height="4.02" fill="#93cebc"/><rect id="_19-2" data-name="19" x="874.46" y="339.84" width="17.56" height="4.02" fill="#93cebc"/><rect id="_20-2" data-name="20" x="874.46" y="334.3" width="17.56" height="4.02" fill="#93cebc"/><rect id="_21-2" data-name="21" x="874.46" y="328.76" width="17.56" height="4.02" fill="#93cebc"/><rect id="_22-2" data-name="22" x="874.46" y="323.22" width="17.56" height="4.02" fill="#93cebc"/><rect id="_23-2" data-name="23" x="874.46" y="317.68" width="17.56" height="4.02" fill="#93cebc"/><rect id="_24-2" data-name="24" x="874.46" y="312.14" width="17.56" height="4.02" fill="#93cebc"/><rect id="_25-2" data-name="25" x="874.46" y="306.6" width="17.56" height="4.02" fill="#93cebc"/><rect id="_26-2" data-name="26" x="874.46" y="301.06" width="17.56" height="4.02" fill="#93cebc"/><rect id="_27-2" data-name="27" x="874.46" y="295.52" width="17.56" height="4.02" fill="#93cebc"/><rect id="_28-2" data-name="28" x="874.46" y="289.98" width="17.56" height="4.02" fill="#93cebc"/><rect id="_29-2" data-name="29" x="874.46" y="284.44" width="17.56" height="4.02" fill="#93cebc"/><rect id="_30-2" data-name="30" x="874.46" y="278.9" width="17.56" height="4.02" fill="#93cebc"/><rect id="_31-2" data-name="31" x="874.46" y="273.36" width="17.56" height="4.02" fill="#93cebc"/><rect id="_32-2" data-name="32" x="874.46" y="267.82" width="17.56" height="4.02" fill="#93cebc"/><rect id="_33-2" data-name="33" x="874.46" y="262.28" width="17.56" height="4.02" fill="#93cebc"/><rect id="_34-2" data-name="34" x="874.46" y="256.74" width="17.56" height="4.02" fill="#93cebc"/><rect id="_35-2" data-name="35" x="874.46" y="251.2" width="17.56" height="4.02" fill="#93cebc"/><rect id="_36-2" data-name="36" x="874.46" y="245.52" width="17.56" height="4.02" fill="#93cebc"/><rect id="_37-2" data-name="37" x="874.46" y="239.91" width="17.56" height="4.02" fill="#93cebc"/><rect id="_38-2" data-name="38" x="874.46" y="234.37" width="17.56" height="4.02" fill="#93cebc"/><rect id="_39-2" data-name="39" x="874.46" y="228.76" width="17.56" height="4.02" fill="#93cebc"/><rect id="_40-2" data-name="40" x="874.46" y="223.07" width="17.56" height="4.02" fill="#93cebc"/><rect id="_41-2" data-name="41" x="874.46" y="217.04" width="17.56" height="4.02" fill="#93cebc"/><rect id="_42-2" data-name="42" x="874.46" y="211.01" width="17.56" height="4.02" fill="#93cebc"/><rect id="_43" data-name="43" x="874.46" y="205.22" width="17.56" height="4.02" fill="#93cebc"/><rect id="_44" data-name="44" x="874.46" y="199.33" width="17.56" height="4.02" fill="#93cebc"/></g><g id="hotel"><rect id="_1-3" data-name="1" x="843.75" y="439.89" width="17.56" height="4.02" fill="#93cebc"/><rect id="_2-3" data-name="2" x="843.75" y="434.35" width="17.56" height="4.02" fill="#93cebc"/><rect id="_3-3" data-name="3" x="843.75" y="428.81" width="17.56" height="4.02" fill="#93cebc"/><rect id="_4-3" data-name="4" x="843.75" y="423.27" width="17.56" height="4.02" fill="#93cebc"/><rect id="_5-3" data-name="5" x="843.75" y="417.73" width="17.56" height="4.02" fill="#93cebc"/><rect id="_6-3" data-name="6" x="843.75" y="412.19" width="17.56" height="4.02" fill="#93cebc"/><rect id="_7-3" data-name="7" x="843.75" y="406.65" width="17.56" height="4.02" fill="#93cebc"/><rect id="_8-3" data-name="8" x="843.75" y="401.11" width="17.56" height="4.02" fill="#93cebc"/><rect id="_9-3" data-name="9" x="843.75" y="395.57" width="17.56" height="4.02" fill="#93cebc"/><rect id="_10-3" data-name="10" x="843.75" y="390.02" width="17.56" height="4.02" fill="#93cebc"/><rect id="_11-3" data-name="11" x="843.75" y="384.48" width="17.56" height="4.02" fill="#93cebc"/><rect id="_12-3" data-name="12" x="843.75" y="378.94" width="17.56" height="4.02" fill="#93cebc"/><rect id="_13-3" data-name="13" x="843.75" y="373.4" width="17.56" height="4.02" fill="#93cebc"/><rect id="_14-3" data-name="14" x="843.75" y="367.86" width="17.56" height="4.02" fill="#93cebc"/><rect id="_15-3" data-name="15" x="843.75" y="362.32" width="17.56" height="4.02" fill="#93cebc"/><rect id="_16-3" data-name="16" x="843.75" y="356.78" width="17.56" height="4.02" fill="#93cebc"/><rect id="_17-3" data-name="17" x="843.75" y="351.24" width="17.56" height="4.02" fill="#93cebc"/><rect id="_18-3" data-name="18" x="843.75" y="345.7" width="17.56" height="4.02" fill="#93cebc"/><rect id="_19-3" data-name="19" x="843.75" y="340.16" width="17.56" height="4.02" fill="#93cebc"/><rect id="_20-3" data-name="20" x="843.75" y="334.62" width="17.56" height="4.02" fill="#93cebc"/><rect id="_21-3" data-name="21" x="843.75" y="329.08" width="17.56" height="4.02" fill="#93cebc"/><rect id="_22-3" data-name="22" x="843.75" y="323.54" width="17.56" height="4.02" fill="#93cebc"/><rect id="_23-3" data-name="23" x="843.75" y="318" width="17.56" height="4.02" fill="#93cebc"/><rect id="_24-3" data-name="24" x="843.75" y="312.46" width="17.56" height="4.02" fill="#93cebc"/><rect id="_25-3" data-name="25" x="843.75" y="306.92" width="17.56" height="4.02" fill="#93cebc"/><rect id="_26-3" data-name="26" x="843.75" y="301.38" width="17.56" height="4.02" fill="#93cebc"/><rect id="_27-3" data-name="27" x="843.75" y="295.84" width="17.56" height="4.02" fill="#93cebc"/><rect id="_28-3" data-name="28" x="843.75" y="290.3" width="17.56" height="4.02" fill="#93cebc"/><rect id="_29-3" data-name="29" x="843.75" y="284.76" width="17.56" height="4.02" fill="#93cebc"/><rect id="_30-3" data-name="30" x="843.75" y="279.22" width="17.56" height="4.02" fill="#93cebc"/><rect id="_31-3" data-name="31" x="843.75" y="273.68" width="17.56" height="4.02" fill="#93cebc"/><rect id="_32-3" data-name="32" x="843.75" y="268.14" width="17.56" height="4.02" fill="#93cebc"/><rect id="_33-3" data-name="33" x="843.75" y="262.6" width="17.56" height="4.02" fill="#93cebc"/><rect id="_34-3" data-name="34" x="843.75" y="257.06" width="17.56" height="4.02" fill="#93cebc"/><rect id="_35-3" data-name="35" x="843.75" y="251.52" width="17.56" height="4.02" fill="#93cebc"/><rect id="_36-3" data-name="36" x="843.75" y="245.84" width="17.56" height="4.02" fill="#93cebc"/><rect id="_37-3" data-name="37" x="843.75" y="240.23" width="17.56" height="4.02" fill="#93cebc"/><rect id="_38-3" data-name="38" x="843.75" y="234.69" width="17.56" height="4.02" fill="#93cebc"/><rect id="_39-3" data-name="39" x="843.75" y="229.08" width="17.56" height="4.02" fill="#93cebc"/><rect id="_40-3" data-name="40" x="843.75" y="223.39" width="17.56" height="4.02" fill="#93cebc"/><rect id="_41-3" data-name="41" x="843.75" y="217.36" width="17.56" height="4.02" fill="#93cebc"/><rect id="_42-3" data-name="42" x="843.75" y="211.33" width="17.56" height="4.02" fill="#93cebc"/><rect id="_43-2" data-name="43" x="843.75" y="205.54" width="17.56" height="4.02" fill="#93cebc"/><rect id="_44-2" data-name="44" x="843.75" y="199.65" width="17.56" height="4.02" fill="#93cebc"/></g><g id="india"><rect id="_1-4" data-name="1" x="812.06" y="439.81" width="17.56" height="4.02" fill="#93cebc"/><rect id="_2-4" data-name="2" x="812.06" y="434.27" width="17.56" height="4.02" fill="#93cebc"/><rect id="_3-4" data-name="3" x="812.06" y="428.73" width="17.56" height="4.02" fill="#93cebc"/><rect id="_4-4" data-name="4" x="812.06" y="423.19" width="17.56" height="4.02" fill="#93cebc"/><rect id="_5-4" data-name="5" x="812.06" y="417.65" width="17.56" height="4.02" fill="#93cebc"/><rect id="_6-4" data-name="6" x="812.06" y="412.11" width="17.56" height="4.02" fill="#93cebc"/><rect id="_7-4" data-name="7" x="812.06" y="406.57" width="17.56" height="4.02" fill="#93cebc"/><rect id="_8-4" data-name="8" x="812.06" y="401.03" width="17.56" height="4.02" fill="#93cebc"/><rect id="_9-4" data-name="9" x="812.06" y="395.49" width="17.56" height="4.02" fill="#93cebc"/><rect id="_10-4" data-name="10" x="812.06" y="389.95" width="17.56" height="4.02" fill="#93cebc"/><rect id="_11-4" data-name="11" x="812.06" y="384.41" width="17.56" height="4.02" fill="#93cebc"/><rect id="_12-4" data-name="12" x="812.06" y="378.87" width="17.56" height="4.02" fill="#93cebc"/><rect id="_13-4" data-name="13" x="812.06" y="373.33" width="17.56" height="4.02" fill="#93cebc"/><rect id="_14-4" data-name="14" x="812.06" y="367.79" width="17.56" height="4.02" fill="#93cebc"/><rect id="_15-4" data-name="15" x="812.06" y="362.25" width="17.56" height="4.02" fill="#93cebc"/><rect id="_16-4" data-name="16" x="812.06" y="356.7" width="17.56" height="4.02" fill="#93cebc"/><rect id="_17-4" data-name="17" x="812.06" y="351.16" width="17.56" height="4.02" fill="#93cebc"/><rect id="_18-4" data-name="18" x="812.06" y="345.62" width="17.56" height="4.02" fill="#93cebc"/><rect id="_19-4" data-name="19" x="812.06" y="340.08" width="17.56" height="4.02" fill="#93cebc"/><rect id="_20-4" data-name="20" x="812.06" y="334.54" width="17.56" height="4.02" fill="#93cebc"/><rect id="_21-4" data-name="21" x="812.06" y="329" width="17.56" height="4.02" fill="#93cebc"/><rect id="_22-4" data-name="22" x="812.06" y="323.46" width="17.56" height="4.02" fill="#93cebc"/><rect id="_23-4" data-name="23" x="812.06" y="317.92" width="17.56" height="4.02" fill="#93cebc"/><rect id="_24-4" data-name="24" x="812.06" y="312.38" width="17.56" height="4.02" fill="#93cebc"/><rect id="_25-4" data-name="25" x="812.06" y="306.84" width="17.56" height="4.02" fill="#93cebc"/><rect id="_26-4" data-name="26" x="812.06" y="301.3" width="17.56" height="4.02" fill="#93cebc"/><rect id="_27-4" data-name="27" x="812.06" y="295.76" width="17.56" height="4.02" fill="#93cebc"/><rect id="_28-4" data-name="28" x="812.06" y="290.22" width="17.56" height="4.02" fill="#93cebc"/><rect id="_29-4" data-name="29" x="812.06" y="284.68" width="17.56" height="4.02" fill="#93cebc"/><rect id="_30-4" data-name="30" x="812.06" y="279.14" width="17.56" height="4.02" fill="#93cebc"/><rect id="_31-4" data-name="31" x="812.06" y="273.6" width="17.56" height="4.02" fill="#93cebc"/><rect id="_32-4" data-name="32" x="812.06" y="268.06" width="17.56" height="4.02" fill="#93cebc"/><rect id="_33-4" data-name="33" x="812.06" y="262.52" width="17.56" height="4.02" fill="#93cebc"/><rect id="_34-4" data-name="34" x="812.06" y="256.98" width="17.56" height="4.02" fill="#93cebc"/><rect id="_35-4" data-name="35" x="812.06" y="251.44" width="17.56" height="4.02" fill="#93cebc"/><rect id="_36-4" data-name="36" x="812.06" y="245.76" width="17.56" height="4.02" fill="#93cebc"/><rect id="_37-4" data-name="37" x="812.06" y="240.15" width="17.56" height="4.02" fill="#93cebc"/><rect id="_38-4" data-name="38" x="812.06" y="234.61" width="17.56" height="4.02" fill="#93cebc"/><rect id="_39-4" data-name="39" x="812.06" y="229" width="17.56" height="4.02" fill="#93cebc"/><rect id="_40-4" data-name="40" x="812.06" y="223.32" width="17.56" height="4.02" fill="#93cebc"/><rect id="_41-4" data-name="41" x="812.06" y="217.28" width="17.56" height="4.02" fill="#93cebc"/><rect id="_42-4" data-name="42" x="812.06" y="211.25" width="17.56" height="4.02" fill="#93cebc"/><rect id="_43-3" data-name="43" x="812.06" y="205.47" width="17.56" height="4.02" fill="#93cebc"/><rect id="_44-3" data-name="44" x="812.06" y="199.57" width="17.56" height="4.02" fill="#93cebc"/><rect id="_45" data-name="45" x="812.06" y="193.69" width="17.56" height="4.02" fill="#93cebc"/><rect id="_46" data-name="46" x="812.06" y="188.29" width="17.56" height="4.02" fill="#93cebc"/></g><g id="juliet"><rect id="_1-5" data-name="1" x="782.95" y="444.29" width="17.56" height="4.02" fill="#93cebc"/><rect id="_2-5" data-name="2" x="782.95" y="438.75" width="17.56" height="4.02" fill="#93cebc"/><rect id="_3-5" data-name="3" x="782.95" y="433.21" width="17.56" height="4.02" fill="#93cebc"/><rect id="_4-5" data-name="4" x="782.95" y="427.67" width="17.56" height="4.02" fill="#93cebc"/><rect id="_5-5" data-name="5" x="782.95" y="422.13" width="17.56" height="4.02" fill="#93cebc"/><rect id="_6-5" data-name="6" x="782.95" y="416.59" width="17.56" height="4.02" fill="#93cebc"/><rect id="_7-5" data-name="7" x="782.95" y="411.05" width="17.56" height="4.02" fill="#93cebc"/><rect id="_8-5" data-name="8" x="782.95" y="405.51" width="17.56" height="4.02" fill="#93cebc"/><rect id="_9-5" data-name="9" x="782.95" y="399.97" width="17.56" height="4.02" fill="#93cebc"/><rect id="_10-5" data-name="10" x="782.95" y="394.43" width="17.56" height="4.02" fill="#93cebc"/><rect id="_11-5" data-name="11" x="782.95" y="388.89" width="17.56" height="4.02" fill="#93cebc"/><rect id="_12-5" data-name="12" x="782.95" y="383.35" width="17.56" height="4.02" fill="#93cebc"/><rect id="_13-5" data-name="13" x="782.95" y="377.81" width="17.56" height="4.02" fill="#93cebc"/><rect id="_14-5" data-name="14" x="782.95" y="372.27" width="17.56" height="4.02" fill="#93cebc"/><rect id="_15-5" data-name="15" x="782.95" y="366.72" width="17.56" height="4.02" fill="#93cebc"/><rect id="_16-5" data-name="16" x="782.95" y="361.18" width="17.56" height="4.02" fill="#93cebc"/><rect id="_17-5" data-name="17" x="782.95" y="355.64" width="17.56" height="4.02" fill="#93cebc"/><rect id="_18-5" data-name="18" x="782.95" y="350.1" width="17.56" height="4.02" fill="#93cebc"/><rect id="_19-5" data-name="19" x="782.95" y="344.56" width="17.56" height="4.02" fill="#93cebc"/><rect id="_20-5" data-name="20" x="782.95" y="339.02" width="17.56" height="4.02" fill="#93cebc"/><rect id="_21-5" data-name="21" x="782.95" y="333.48" width="17.56" height="4.02" fill="#93cebc"/><rect id="_22-5" data-name="22" x="782.95" y="327.94" width="17.56" height="4.02" fill="#93cebc"/><rect id="_23-5" data-name="23" x="782.95" y="322.4" width="17.56" height="4.02" fill="#93cebc"/><rect id="_24-5" data-name="24" x="782.95" y="316.86" width="17.56" height="4.02" fill="#93cebc"/><rect id="_25-5" data-name="25" x="782.95" y="311.32" width="17.56" height="4.02" fill="#93cebc"/><rect id="_26-5" data-name="26" x="782.95" y="305.78" width="17.56" height="4.02" fill="#93cebc"/><rect id="_27-5" data-name="27" x="782.95" y="300.24" width="17.56" height="4.02" fill="#93cebc"/><rect id="_28-5" data-name="28" x="782.95" y="294.7" width="17.56" height="4.02" fill="#93cebc"/><rect id="_29-5" data-name="29" x="782.95" y="289.16" width="17.56" height="4.02" fill="#93cebc"/><rect id="_30-5" data-name="30" x="782.95" y="283.62" width="17.56" height="4.02" fill="#93cebc"/><rect id="_31-5" data-name="31" x="782.95" y="278.08" width="17.56" height="4.02" fill="#93cebc"/><rect id="_32-5" data-name="32" x="782.95" y="272.54" width="17.56" height="4.02" fill="#93cebc"/><rect id="_33-5" data-name="33" x="782.95" y="267" width="17.56" height="4.02" fill="#93cebc"/><rect id="_34-5" data-name="34" x="782.95" y="261.46" width="17.56" height="4.02" fill="#93cebc"/><rect id="_35-5" data-name="35" x="782.95" y="255.92" width="17.56" height="4.02" fill="#93cebc"/><rect id="_36-5" data-name="36" x="782.95" y="250.24" width="17.56" height="4.02" fill="#93cebc"/><rect id="_37-5" data-name="37" x="782.95" y="244.63" width="17.56" height="4.02" fill="#93cebc"/><rect id="_38-5" data-name="38" x="782.95" y="239.09" width="17.56" height="4.02" fill="#93cebc"/><rect id="_39-5" data-name="39" x="782.95" y="233.48" width="17.56" height="4.02" fill="#93cebc"/><rect id="_40-5" data-name="40" x="782.95" y="227.79" width="17.56" height="4.02" fill="#93cebc"/><rect id="_41-5" data-name="41" x="782.95" y="221.76" width="17.56" height="4.02" fill="#93cebc"/><rect id="_42-5" data-name="42" x="782.95" y="215.73" width="17.56" height="4.02" fill="#93cebc"/><rect id="_43-4" data-name="43" x="782.95" y="209.94" width="17.56" height="4.02" fill="#93cebc"/><rect id="_44-4" data-name="44" x="782.95" y="204.05" width="17.56" height="4.02" fill="#93cebc"/><rect id="_45-2" data-name="45" x="782.95" y="198.17" width="17.56" height="4.02" fill="#93cebc"/><rect id="_46-2" data-name="46" x="782.95" y="192.32" width="17.56" height="4.02" fill="#93cebc"/><rect id="_47" data-name="47" x="782.95" y="186.61" width="17.56" height="4.02" fill="#93cebc"/></g><g id="kilo"><rect id="_1-6" data-name="1" x="749.46" y="438.5" width="17.56" height="4.22" fill="#93cebc"/><rect id="_2-6" data-name="2" x="749.46" y="432.69" width="17.56" height="4.22" fill="#93cebc"/><rect id="_3-6" data-name="3" x="749.46" y="426.88" width="17.56" height="4.22" fill="#93cebc"/><rect id="_4-6" data-name="4" x="749.46" y="421.06" width="17.56" height="4.22" fill="#93cebc"/><rect id="_5-6" data-name="5" x="749.46" y="415.25" width="17.56" height="4.22" fill="#93cebc"/><rect id="_6-6" data-name="6" x="749.46" y="409.44" width="17.56" height="4.22" fill="#93cebc"/><rect id="_7-6" data-name="7" x="749.46" y="403.63" width="17.56" height="4.22" fill="#93cebc"/><rect id="_8-6" data-name="8" x="749.46" y="397.81" width="17.56" height="4.22" fill="#93cebc"/><rect id="_9-6" data-name="9" x="749.46" y="392" width="17.56" height="4.22" fill="#93cebc"/><rect id="_10-6" data-name="10" x="749.46" y="386.19" width="17.56" height="4.22" fill="#93cebc"/><rect id="_11-6" data-name="11" x="749.46" y="380.38" width="17.56" height="4.22" fill="#93cebc"/><rect id="_12-6" data-name="12" x="749.46" y="374.56" width="17.56" height="4.22" fill="#93cebc"/><rect id="_13-6" data-name="13" x="749.46" y="368.75" width="17.56" height="4.22" fill="#93cebc"/><rect id="_14-6" data-name="14" x="749.46" y="362.94" width="17.56" height="4.22" fill="#93cebc"/><rect id="_15-6" data-name="15" x="749.46" y="357.12" width="17.56" height="4.22" fill="#93cebc"/><rect id="_16-6" data-name="16" x="749.46" y="351.31" width="17.56" height="4.22" fill="#93cebc"/><rect id="_17-6" data-name="17" x="749.46" y="345.5" width="17.56" height="4.22" fill="#93cebc"/><rect id="_18-6" data-name="18" x="749.46" y="339.69" width="17.56" height="4.22" fill="#93cebc"/><rect id="_19-6" data-name="19" x="749.46" y="333.87" width="17.56" height="4.22" fill="#93cebc"/><rect id="_20-6" data-name="20" x="749.46" y="328.06" width="17.56" height="4.22" fill="#93cebc"/><rect id="_21-6" data-name="21" x="749.46" y="322.25" width="17.56" height="4.22" fill="#93cebc"/><rect id="_22-6" data-name="22" x="749.46" y="316.44" width="17.56" height="4.22" fill="#93cebc"/><rect id="_23-6" data-name="23" x="749.46" y="310.62" width="17.56" height="4.22" fill="#93cebc"/><rect id="_24-6" data-name="24" x="749.46" y="304.81" width="17.56" height="4.22" fill="#93cebc"/><rect id="_25-6" data-name="25" x="749.46" y="299" width="17.56" height="4.22" fill="#93cebc"/><rect id="_26-6" data-name="26" x="749.46" y="293.18" width="17.56" height="4.22" fill="#93cebc"/><rect id="_27-6" data-name="27" x="749.46" y="287.37" width="17.56" height="4.22" fill="#93cebc"/><rect id="_28-6" data-name="28" x="749.46" y="281.56" width="17.56" height="4.22" fill="#93cebc"/><rect id="_29-6" data-name="29" x="749.46" y="275.75" width="17.56" height="4.22" fill="#93cebc"/><rect id="_30-6" data-name="30" x="749.46" y="269.93" width="17.56" height="4.22" fill="#93cebc"/><rect id="_31-6" data-name="31" x="749.46" y="264.12" width="17.56" height="4.22" fill="#93cebc"/><rect id="_32-6" data-name="32" x="749.46" y="258.31" width="17.56" height="4.22" fill="#93cebc"/><rect id="_33-6" data-name="33" x="749.46" y="252.5" width="17.56" height="4.22" fill="#93cebc"/><rect id="_34-6" data-name="34" x="749.46" y="246.68" width="17.56" height="4.22" fill="#93cebc"/><rect id="_35-6" data-name="35" x="749.46" y="240.87" width="17.56" height="4.22" fill="#93cebc"/><rect id="_36-6" data-name="36" x="749.46" y="234.91" width="17.56" height="4.22" fill="#93cebc"/><rect id="_37-6" data-name="37" x="749.46" y="229.03" width="17.56" height="4.22" fill="#93cebc"/><rect id="_38-6" data-name="38" x="749.46" y="223.21" width="17.56" height="4.22" fill="#93cebc"/><rect id="_39-6" data-name="39" x="749.46" y="217.33" width="17.56" height="4.22" fill="#93cebc"/><rect id="_40-6" data-name="40" x="749.46" y="211.37" width="17.56" height="4.22" fill="#93cebc"/><rect id="_41-6" data-name="41" x="749.46" y="205.03" width="17.56" height="4.22" fill="#93cebc"/><rect id="_42-6" data-name="42" x="749.46" y="198.7" width="17.56" height="4.22" fill="#93cebc"/><rect id="_43-5" data-name="43" x="749.46" y="192.64" width="17.56" height="4.22" fill="#93cebc"/></g><g id="lima"><rect id="L_1" data-name="L 1" x="719.31" y="463.26" width="17.56" height="4.22" fill="#93cebc"/><rect id="L_2" data-name="L 2" x="719.31" y="457.44" width="17.56" height="4.22" fill="#93cebc"/><rect id="L_3" data-name="L 3" x="719.31" y="451.62" width="17.56" height="4.22" fill="#93cebc"/><rect id="L_4" data-name="L 4" x="719.31" y="445.8" width="17.56" height="4.22" fill="#93cebc"/><rect id="L_5" data-name="L 5" x="719.31" y="439.99" width="17.56" height="4.22" fill="#93cebc"/><rect id="L_6" data-name="L 6" x="719.31" y="434.17" width="17.56" height="4.22" fill="#93cebc"/><rect id="L_7" data-name="L 7" x="719.31" y="428.35" width="17.56" height="4.22" fill="#93cebc"/><rect id="L_8" data-name="L 8" x="719.31" y="422.53" width="17.56" height="4.22" fill="#93cebc"/><rect id="L_9" data-name="L 9" x="719.31" y="416.71" width="17.56" height="4.22" fill="#93cebc"/><rect id="L_10" data-name="L 10" x="719.31" y="410.89" width="17.56" height="4.22" fill="#93cebc"/><rect id="L_11" data-name="L 11" x="719.31" y="405.07" width="17.56" height="4.22" fill="#93cebc"/><rect id="L_12" data-name="L 12" x="719.31" y="399.26" width="17.56" height="4.22" fill="#93cebc"/><rect id="L_13" data-name="L 13" x="719.31" y="393.44" width="17.56" height="4.22" fill="#93cebc"/><rect id="L_14" data-name="L 14" x="719.31" y="387.62" width="17.56" height="4.22" fill="#93cebc"/><rect id="L_15" data-name="L 15" x="719.31" y="381.8" width="17.56" height="4.22" fill="#93cebc"/><rect id="L_16" data-name="L 16" x="719.31" y="375.98" width="17.56" height="4.22" fill="#93cebc"/><rect id="L_17" data-name="L 17" x="719.31" y="370.16" width="17.56" height="4.22" fill="#93cebc"/><rect id="L_18" data-name="L 18" x="719.31" y="364.34" width="17.56" height="4.22" fill="#93cebc"/><rect id="L_19" data-name="L 19" x="719.31" y="358.53" width="17.56" height="4.22" fill="#93cebc"/><rect id="L_20" data-name="L 20" x="719.31" y="352.71" width="17.56" height="4.22" fill="#93cebc"/><rect id="L_21" data-name="L 21" x="719.31" y="346.89" width="17.56" height="4.22" fill="#93cebc"/><rect id="L_22" data-name="L 22" x="719.31" y="341.07" width="17.56" height="4.22" fill="#93cebc"/><rect id="L_23" data-name="L 23" x="719.31" y="335.25" width="17.56" height="4.22" fill="#93cebc"/><rect id="L_24" data-name="L 24" x="719.31" y="329.43" width="17.56" height="4.22" fill="#93cebc"/><rect id="L_25" data-name="L 25" x="719.31" y="323.61" width="17.56" height="4.22" fill="#93cebc"/><rect id="L_26" data-name="L 26" x="719.31" y="317.8" width="17.56" height="4.22" fill="#93cebc"/><rect id="L_27" data-name="L 27" x="719.31" y="311.98" width="17.56" height="4.22" fill="#93cebc"/><rect id="L_28" data-name="L 28" x="719.31" y="306.16" width="17.56" height="4.22" fill="#93cebc"/><rect id="L_29" data-name="L 29" x="719.31" y="300.34" width="17.56" height="4.22" fill="#93cebc"/><rect id="L_30" data-name="L 30" x="719.31" y="294.52" width="17.56" height="4.22" fill="#93cebc"/><rect id="L_31" data-name="L 31" x="719.31" y="288.7" width="17.56" height="4.22" fill="#93cebc"/><rect id="L_32" data-name="L 32" x="719.31" y="282.88" width="17.56" height="4.22" fill="#93cebc"/><rect id="L_33" data-name="L 33" x="719.31" y="277.07" width="17.56" height="4.22" fill="#93cebc"/><rect id="L_34" data-name="L 34" x="719.31" y="271.25" width="17.56" height="4.22" fill="#93cebc"/><rect id="L_35" data-name="L 35" x="719.31" y="265.43" width="17.56" height="4.22" fill="#93cebc"/><rect id="L_36" data-name="L 36" x="719.31" y="259.46" width="17.56" height="4.22" fill="#93cebc"/><rect id="L_37" data-name="L 37" x="719.31" y="253.57" width="17.56" height="4.22" fill="#93cebc"/><rect id="L_38" data-name="L 38" x="719.31" y="247.75" width="17.56" height="4.22" fill="#93cebc"/><rect id="L_39" data-name="L 39" x="719.31" y="241.86" width="17.56" height="4.22" fill="#93cebc"/><rect id="L_40" data-name="L 40" x="719.31" y="235.89" width="17.56" height="4.22" fill="#93cebc"/><rect id="L_41" data-name="L 41" x="719.31" y="229.56" width="17.56" height="4.22" fill="#93cebc"/><rect id="L_42" data-name="L 42" x="719.31" y="223.22" width="17.56" height="4.22" fill="#93cebc"/><rect id="L_43" data-name="L 43" x="719.31" y="217.15" width="17.56" height="4.22" fill="#93cebc"/><rect id="L_44" data-name="L 44" x="719.31" y="210.96" width="17.56" height="4.22" fill="#93cebc"/><rect id="L_45" data-name="L 45" x="719.31" y="204.78" width="17.56" height="4.22" fill="#93cebc"/><rect id="L_46" data-name="L 46" x="719.31" y="198.63" width="17.56" height="4.22" fill="#93cebc"/><rect id="L_47" data-name="L 47" x="719.31" y="192.64" width="17.56" height="4.22" fill="#93cebc"/></g></g><g id="Icone"><polygon points="1070.97 44.24 1063.28 50.39 1053.5 49.31 1047.35 41.63 1048.43 31.84 1056.11 25.69 1065.9 26.77 1072.05 34.46 1070.97 44.24" fill="#949494"/></g></svg>